G75*
G70*
%OFA0B0*%
%FSLAX25Y25*%
%IPPOS*%
%LPD*%
%AMOC8*
5,1,8,0,0,1.08239X$1,22.5*
%
%ADD10C,0.07400*%
%ADD11C,0.05900*%
%ADD12C,0.05400*%
%ADD13C,0.09300*%
%ADD14C,0.04362*%
%ADD15C,0.01600*%
%ADD16C,0.01200*%
D10*
X0046770Y0021814D03*
X0056770Y0021814D03*
X0066770Y0021814D03*
X0076770Y0021814D03*
X0086770Y0021814D03*
X0096770Y0021814D03*
X0106770Y0021814D03*
X0116770Y0021814D03*
X0131770Y0021814D03*
X0141770Y0021814D03*
X0151770Y0021814D03*
X0161770Y0021814D03*
X0171770Y0021814D03*
X0181770Y0021814D03*
X0191770Y0021814D03*
X0201770Y0021814D03*
X0166770Y0211814D03*
X0156770Y0211814D03*
X0146770Y0211814D03*
X0136770Y0211814D03*
X0126770Y0211814D03*
X0116770Y0211814D03*
X0096770Y0211814D03*
X0086770Y0211814D03*
X0076770Y0211814D03*
X0066770Y0211814D03*
X0056770Y0211814D03*
X0046770Y0211814D03*
D11*
X0186670Y0187914D03*
X0226670Y0187914D03*
X0115870Y0090014D03*
X0107970Y0090014D03*
X0100070Y0090014D03*
X0221170Y0027414D03*
X0231170Y0027414D03*
X0241170Y0027414D03*
D12*
X0110070Y0127666D03*
X0100070Y0127666D03*
D13*
X0091770Y0090014D03*
X0124170Y0090014D03*
D14*
X0146970Y0090014D03*
X0150570Y0077814D03*
X0158970Y0078214D03*
X0171370Y0073114D03*
X0187770Y0081714D03*
X0188770Y0074014D03*
X0166370Y0090014D03*
X0120170Y0066614D03*
X0110570Y0054114D03*
X0111470Y0045414D03*
X0111570Y0035914D03*
X0101670Y0034814D03*
X0096670Y0031914D03*
X0078970Y0034614D03*
X0072270Y0040614D03*
X0061570Y0050014D03*
X0076270Y0059414D03*
X0082570Y0058414D03*
X0082070Y0074714D03*
X0086470Y0081614D03*
X0082270Y0097514D03*
X0056270Y0101014D03*
X0082770Y0126714D03*
X0061970Y0136014D03*
X0074270Y0156414D03*
X0096970Y0159114D03*
X0094370Y0168014D03*
X0091770Y0188414D03*
X0082970Y0188214D03*
X0077170Y0187814D03*
X0071170Y0201514D03*
X0055770Y0201914D03*
X0106770Y0214014D03*
X0131870Y0196814D03*
X0139570Y0198014D03*
X0156770Y0169714D03*
X0138770Y0140014D03*
X0126270Y0129414D03*
X0045670Y0066514D03*
X0141170Y0054414D03*
X0157970Y0045614D03*
X0163370Y0050814D03*
X0169470Y0051114D03*
X0176170Y0046014D03*
X0182970Y0051614D03*
X0169470Y0038714D03*
X0168970Y0029114D03*
X0149970Y0036314D03*
X0142370Y0031614D03*
X0217570Y0074414D03*
X0224370Y0112414D03*
D15*
X0028770Y0008814D02*
X0028770Y0224814D01*
X0249770Y0224814D01*
X0249770Y0008814D01*
X0028770Y0008814D01*
X0028770Y0009806D02*
X0249770Y0009806D01*
X0249770Y0011405D02*
X0028770Y0011405D01*
X0028770Y0013003D02*
X0037487Y0013003D01*
X0037610Y0012880D02*
X0038493Y0012514D01*
X0039447Y0012514D01*
X0042947Y0012514D01*
X0145347Y0012514D01*
X0146230Y0012880D01*
X0146904Y0013554D01*
X0150113Y0016764D01*
X0150715Y0016514D01*
X0152824Y0016514D01*
X0154772Y0017321D01*
X0156263Y0018812D01*
X0156770Y0020036D01*
X0157277Y0018812D01*
X0158768Y0017321D01*
X0160715Y0016514D01*
X0162824Y0016514D01*
X0164772Y0017321D01*
X0166263Y0018812D01*
X0166770Y0020036D01*
X0167277Y0018812D01*
X0168768Y0017321D01*
X0170715Y0016514D01*
X0172824Y0016514D01*
X0174772Y0017321D01*
X0176263Y0018812D01*
X0176770Y0020036D01*
X0177277Y0018812D01*
X0178768Y0017321D01*
X0180715Y0016514D01*
X0182824Y0016514D01*
X0184772Y0017321D01*
X0186263Y0018812D01*
X0186655Y0019759D01*
X0186673Y0019703D01*
X0187066Y0018931D01*
X0187575Y0018231D01*
X0188187Y0017619D01*
X0188887Y0017110D01*
X0189659Y0016717D01*
X0190482Y0016450D01*
X0191337Y0016314D01*
X0191569Y0016314D01*
X0191569Y0021611D01*
X0191970Y0021611D01*
X0191970Y0016314D01*
X0192203Y0016314D01*
X0193058Y0016450D01*
X0193881Y0016717D01*
X0194652Y0017110D01*
X0195353Y0017619D01*
X0195965Y0018231D01*
X0196474Y0018931D01*
X0196867Y0019703D01*
X0196885Y0019759D01*
X0197277Y0018812D01*
X0198768Y0017321D01*
X0200715Y0016514D01*
X0202824Y0016514D01*
X0204772Y0017321D01*
X0206263Y0018812D01*
X0207070Y0020759D01*
X0207070Y0022869D01*
X0206263Y0024816D01*
X0204772Y0026307D01*
X0202824Y0027114D01*
X0200715Y0027114D01*
X0198768Y0026307D01*
X0197277Y0024816D01*
X0196885Y0023869D01*
X0196867Y0023925D01*
X0196474Y0024696D01*
X0195965Y0025397D01*
X0195353Y0026009D01*
X0194652Y0026518D01*
X0193881Y0026911D01*
X0193058Y0027178D01*
X0192203Y0027314D01*
X0191970Y0027314D01*
X0191970Y0022017D01*
X0191569Y0022017D01*
X0191569Y0027314D01*
X0191337Y0027314D01*
X0190482Y0027178D01*
X0189659Y0026911D01*
X0188887Y0026518D01*
X0188187Y0026009D01*
X0187575Y0025397D01*
X0187066Y0024696D01*
X0186673Y0023925D01*
X0186655Y0023869D01*
X0186263Y0024816D01*
X0184772Y0026307D01*
X0182824Y0027114D01*
X0180715Y0027114D01*
X0178768Y0026307D01*
X0177277Y0024816D01*
X0176770Y0023592D01*
X0176263Y0024816D01*
X0174772Y0026307D01*
X0172824Y0027114D01*
X0172233Y0027114D01*
X0172751Y0028362D01*
X0172751Y0029866D01*
X0172175Y0031256D01*
X0171112Y0032319D01*
X0169722Y0032895D01*
X0168218Y0032895D01*
X0166828Y0032319D01*
X0165765Y0031256D01*
X0165250Y0030014D01*
X0164347Y0030014D01*
X0164163Y0030014D01*
X0164604Y0030454D01*
X0169083Y0034933D01*
X0170222Y0034933D01*
X0171612Y0035509D01*
X0172675Y0036572D01*
X0173251Y0037962D01*
X0173251Y0039466D01*
X0172675Y0040856D01*
X0171612Y0041919D01*
X0170222Y0042495D01*
X0168718Y0042495D01*
X0167328Y0041919D01*
X0166265Y0040856D01*
X0165689Y0039466D01*
X0165689Y0038327D01*
X0161210Y0033848D01*
X0161176Y0033814D01*
X0152817Y0033814D01*
X0153175Y0034172D01*
X0153751Y0035562D01*
X0153751Y0037066D01*
X0153175Y0038456D01*
X0152370Y0039261D01*
X0152370Y0045137D01*
X0152370Y0046091D01*
X0152004Y0046974D01*
X0144951Y0054027D01*
X0144951Y0055166D01*
X0144375Y0056556D01*
X0143312Y0057619D01*
X0141922Y0058195D01*
X0140418Y0058195D01*
X0139028Y0057619D01*
X0137965Y0056556D01*
X0137389Y0055166D01*
X0137389Y0053662D01*
X0137965Y0052272D01*
X0139028Y0051209D01*
X0140418Y0050633D01*
X0141557Y0050633D01*
X0147570Y0044620D01*
X0147570Y0039261D01*
X0146765Y0038456D01*
X0146283Y0037294D01*
X0142204Y0041374D01*
X0128104Y0055474D01*
X0127430Y0056148D01*
X0126547Y0056514D01*
X0113517Y0056514D01*
X0112712Y0057319D01*
X0111322Y0057895D01*
X0109818Y0057895D01*
X0108428Y0057319D01*
X0107365Y0056256D01*
X0106789Y0054866D01*
X0106789Y0053362D01*
X0107365Y0051972D01*
X0108428Y0050909D01*
X0109818Y0050333D01*
X0111322Y0050333D01*
X0112712Y0050909D01*
X0113517Y0051714D01*
X0125076Y0051714D01*
X0138810Y0037980D01*
X0146735Y0030054D01*
X0146776Y0030014D01*
X0117547Y0030014D01*
X0099975Y0030014D01*
X0100451Y0031162D01*
X0100451Y0031227D01*
X0100918Y0031033D01*
X0102422Y0031033D01*
X0103812Y0031609D01*
X0104875Y0032672D01*
X0105451Y0034062D01*
X0105451Y0035566D01*
X0104875Y0036956D01*
X0103812Y0038019D01*
X0102422Y0038595D01*
X0101283Y0038595D01*
X0100830Y0039048D01*
X0099947Y0039414D01*
X0091564Y0039414D01*
X0075222Y0055756D01*
X0075518Y0055633D01*
X0077022Y0055633D01*
X0078412Y0056209D01*
X0079475Y0057272D01*
X0080051Y0058662D01*
X0080051Y0060166D01*
X0079475Y0061556D01*
X0078670Y0062361D01*
X0078670Y0067920D01*
X0081683Y0070933D01*
X0082822Y0070933D01*
X0084212Y0071509D01*
X0085275Y0072572D01*
X0085851Y0073962D01*
X0085851Y0075466D01*
X0085275Y0076856D01*
X0084212Y0077919D01*
X0082822Y0078495D01*
X0081318Y0078495D01*
X0079928Y0077919D01*
X0078865Y0076856D01*
X0078289Y0075466D01*
X0078289Y0074327D01*
X0074235Y0070274D01*
X0073870Y0069391D01*
X0073870Y0068437D01*
X0073870Y0062361D01*
X0073065Y0061556D01*
X0072489Y0060166D01*
X0072489Y0058662D01*
X0072612Y0058366D01*
X0067370Y0063608D01*
X0067370Y0066320D01*
X0080264Y0079214D01*
X0083523Y0079214D01*
X0084328Y0078409D01*
X0085718Y0077833D01*
X0087222Y0077833D01*
X0088612Y0078409D01*
X0089675Y0079472D01*
X0090251Y0080862D01*
X0090251Y0082366D01*
X0089675Y0083756D01*
X0089058Y0084373D01*
X0090526Y0083764D01*
X0093013Y0083764D01*
X0095310Y0084716D01*
X0097068Y0086474D01*
X0097100Y0086550D01*
X0097493Y0086157D01*
X0099165Y0085464D01*
X0100975Y0085464D01*
X0102647Y0086157D01*
X0103927Y0087437D01*
X0103943Y0087476D01*
X0104347Y0086920D01*
X0104876Y0086391D01*
X0105480Y0085952D01*
X0106146Y0085612D01*
X0106857Y0085381D01*
X0107596Y0085264D01*
X0107894Y0085264D01*
X0107894Y0089937D01*
X0108045Y0089937D01*
X0108045Y0085264D01*
X0108344Y0085264D01*
X0109082Y0085381D01*
X0109793Y0085612D01*
X0110459Y0085952D01*
X0111064Y0086391D01*
X0111593Y0086920D01*
X0111996Y0087476D01*
X0112013Y0087437D01*
X0113293Y0086157D01*
X0114965Y0085464D01*
X0116775Y0085464D01*
X0118447Y0086157D01*
X0118840Y0086550D01*
X0118872Y0086474D01*
X0120630Y0084716D01*
X0122926Y0083764D01*
X0125413Y0083764D01*
X0127710Y0084716D01*
X0129468Y0086474D01*
X0130420Y0088770D01*
X0130420Y0091257D01*
X0129468Y0093554D01*
X0127710Y0095312D01*
X0125413Y0096264D01*
X0122926Y0096264D01*
X0120630Y0095312D01*
X0118872Y0093554D01*
X0118840Y0093478D01*
X0118447Y0093871D01*
X0116775Y0094564D01*
X0114965Y0094564D01*
X0114780Y0094487D01*
X0110431Y0098821D01*
X0110004Y0099248D01*
X0110001Y0099250D01*
X0110000Y0099251D01*
X0109625Y0099405D01*
X0109121Y0099614D01*
X0109119Y0099614D01*
X0109117Y0099615D01*
X0108637Y0099614D01*
X0088293Y0099614D01*
X0087410Y0099248D01*
X0086735Y0098574D01*
X0060310Y0072148D01*
X0059635Y0071474D01*
X0059270Y0070591D01*
X0059270Y0069637D01*
X0059370Y0069395D01*
X0059370Y0060337D01*
X0059735Y0059454D01*
X0060410Y0058780D01*
X0087570Y0031620D01*
X0087570Y0031437D01*
X0087935Y0030554D01*
X0088476Y0030014D01*
X0080664Y0030014D01*
X0074670Y0036008D01*
X0074670Y0037667D01*
X0075475Y0038472D01*
X0076051Y0039862D01*
X0076051Y0041366D01*
X0075475Y0042756D01*
X0074412Y0043819D01*
X0073022Y0044395D01*
X0071518Y0044395D01*
X0070128Y0043819D01*
X0069065Y0042756D01*
X0068489Y0041366D01*
X0068489Y0039862D01*
X0069065Y0038472D01*
X0069870Y0037667D01*
X0069870Y0034537D01*
X0070235Y0033654D01*
X0070910Y0032980D01*
X0076776Y0027114D01*
X0075715Y0027114D01*
X0073768Y0026307D01*
X0072277Y0024816D01*
X0071770Y0023592D01*
X0071263Y0024816D01*
X0069772Y0026307D01*
X0067824Y0027114D01*
X0065715Y0027114D01*
X0064548Y0026630D01*
X0055670Y0035508D01*
X0055670Y0097020D01*
X0055883Y0097233D01*
X0057022Y0097233D01*
X0058412Y0097809D01*
X0059475Y0098872D01*
X0060051Y0100262D01*
X0060051Y0101766D01*
X0059475Y0103156D01*
X0058412Y0104219D01*
X0057022Y0104795D01*
X0055518Y0104795D01*
X0054128Y0104219D01*
X0053065Y0103156D01*
X0052489Y0101766D01*
X0052489Y0100627D01*
X0051235Y0099374D01*
X0050870Y0098491D01*
X0050870Y0097537D01*
X0050870Y0034037D01*
X0051235Y0033154D01*
X0051910Y0032480D01*
X0057276Y0027114D01*
X0055715Y0027114D01*
X0053768Y0026307D01*
X0052277Y0024816D01*
X0051770Y0023592D01*
X0051263Y0024816D01*
X0049772Y0026307D01*
X0047824Y0027114D01*
X0045715Y0027114D01*
X0043768Y0026307D01*
X0042277Y0024816D01*
X0041470Y0022869D01*
X0041470Y0020759D01*
X0042277Y0018812D01*
X0043768Y0017321D01*
X0043785Y0017314D01*
X0042947Y0017314D01*
X0039964Y0017314D01*
X0038570Y0018708D01*
X0038570Y0053490D01*
X0045767Y0062733D01*
X0046422Y0062733D01*
X0047812Y0063309D01*
X0048875Y0064372D01*
X0049451Y0065762D01*
X0049451Y0067266D01*
X0048875Y0068656D01*
X0047812Y0069719D01*
X0046422Y0070295D01*
X0044918Y0070295D01*
X0043528Y0069719D01*
X0042465Y0068656D01*
X0041889Y0067266D01*
X0041889Y0065762D01*
X0041943Y0065633D01*
X0034369Y0055906D01*
X0034135Y0055674D01*
X0034077Y0055532D01*
X0033983Y0055412D01*
X0033896Y0055094D01*
X0033770Y0054791D01*
X0033770Y0054639D01*
X0033730Y0054492D01*
X0033770Y0054165D01*
X0033770Y0017237D01*
X0034135Y0016354D01*
X0034810Y0015680D01*
X0037610Y0012880D01*
X0035888Y0014602D02*
X0028770Y0014602D01*
X0028770Y0016200D02*
X0034290Y0016200D01*
X0033770Y0017798D02*
X0028770Y0017798D01*
X0028770Y0019397D02*
X0033770Y0019397D01*
X0033770Y0020995D02*
X0028770Y0020995D01*
X0028770Y0022594D02*
X0033770Y0022594D01*
X0033770Y0024192D02*
X0028770Y0024192D01*
X0028770Y0025791D02*
X0033770Y0025791D01*
X0033770Y0027389D02*
X0028770Y0027389D01*
X0028770Y0028987D02*
X0033770Y0028987D01*
X0033770Y0030586D02*
X0028770Y0030586D01*
X0028770Y0032184D02*
X0033770Y0032184D01*
X0033770Y0033783D02*
X0028770Y0033783D01*
X0028770Y0035381D02*
X0033770Y0035381D01*
X0033770Y0036980D02*
X0028770Y0036980D01*
X0028770Y0038578D02*
X0033770Y0038578D01*
X0033770Y0040176D02*
X0028770Y0040176D01*
X0028770Y0041775D02*
X0033770Y0041775D01*
X0033770Y0043373D02*
X0028770Y0043373D01*
X0028770Y0044972D02*
X0033770Y0044972D01*
X0033770Y0046570D02*
X0028770Y0046570D01*
X0028770Y0048169D02*
X0033770Y0048169D01*
X0033770Y0049767D02*
X0028770Y0049767D01*
X0028770Y0051365D02*
X0033770Y0051365D01*
X0033770Y0052964D02*
X0028770Y0052964D01*
X0028770Y0054562D02*
X0033749Y0054562D01*
X0034567Y0056161D02*
X0028770Y0056161D01*
X0028770Y0057759D02*
X0035811Y0057759D01*
X0037056Y0059357D02*
X0028770Y0059357D01*
X0028770Y0060956D02*
X0038301Y0060956D01*
X0039545Y0062554D02*
X0028770Y0062554D01*
X0028770Y0064153D02*
X0040790Y0064153D01*
X0041893Y0065751D02*
X0028770Y0065751D01*
X0028770Y0067350D02*
X0041924Y0067350D01*
X0042757Y0068948D02*
X0028770Y0068948D01*
X0028770Y0070546D02*
X0050870Y0070546D01*
X0050870Y0068948D02*
X0048583Y0068948D01*
X0049417Y0067350D02*
X0050870Y0067350D01*
X0050870Y0065751D02*
X0049446Y0065751D01*
X0048656Y0064153D02*
X0050870Y0064153D01*
X0050870Y0062554D02*
X0045628Y0062554D01*
X0044383Y0060956D02*
X0050870Y0060956D01*
X0050870Y0059357D02*
X0043139Y0059357D01*
X0041894Y0057759D02*
X0050870Y0057759D01*
X0050870Y0056161D02*
X0040649Y0056161D01*
X0039404Y0054562D02*
X0050870Y0054562D01*
X0050870Y0052964D02*
X0038570Y0052964D01*
X0038570Y0051365D02*
X0050870Y0051365D01*
X0050870Y0049767D02*
X0038570Y0049767D01*
X0038570Y0048169D02*
X0050870Y0048169D01*
X0050870Y0046570D02*
X0038570Y0046570D01*
X0038570Y0044972D02*
X0050870Y0044972D01*
X0050870Y0043373D02*
X0038570Y0043373D01*
X0038570Y0041775D02*
X0050870Y0041775D01*
X0050870Y0040176D02*
X0038570Y0040176D01*
X0038570Y0038578D02*
X0050870Y0038578D01*
X0050870Y0036980D02*
X0038570Y0036980D01*
X0038570Y0035381D02*
X0050870Y0035381D01*
X0050975Y0033783D02*
X0038570Y0033783D01*
X0038570Y0032184D02*
X0052206Y0032184D01*
X0053804Y0030586D02*
X0038570Y0030586D01*
X0038570Y0028987D02*
X0055402Y0028987D01*
X0057001Y0027389D02*
X0038570Y0027389D01*
X0038570Y0025791D02*
X0043251Y0025791D01*
X0042019Y0024192D02*
X0038570Y0024192D01*
X0038570Y0022594D02*
X0041470Y0022594D01*
X0041470Y0020995D02*
X0038570Y0020995D01*
X0038570Y0019397D02*
X0042034Y0019397D01*
X0043290Y0017798D02*
X0039480Y0017798D01*
X0038970Y0014914D02*
X0036170Y0017714D01*
X0036170Y0054314D01*
X0045670Y0066514D01*
X0050870Y0072145D02*
X0028770Y0072145D01*
X0028770Y0073743D02*
X0050870Y0073743D01*
X0050870Y0075342D02*
X0028770Y0075342D01*
X0028770Y0076940D02*
X0050870Y0076940D01*
X0050870Y0078539D02*
X0028770Y0078539D01*
X0028770Y0080137D02*
X0050870Y0080137D01*
X0050870Y0081735D02*
X0028770Y0081735D01*
X0028770Y0083334D02*
X0050870Y0083334D01*
X0050870Y0084932D02*
X0028770Y0084932D01*
X0028770Y0086531D02*
X0050870Y0086531D01*
X0050870Y0088129D02*
X0028770Y0088129D01*
X0028770Y0089728D02*
X0050870Y0089728D01*
X0050870Y0091326D02*
X0028770Y0091326D01*
X0028770Y0092924D02*
X0050870Y0092924D01*
X0050870Y0094523D02*
X0028770Y0094523D01*
X0028770Y0096121D02*
X0050870Y0096121D01*
X0050870Y0097720D02*
X0028770Y0097720D01*
X0028770Y0099318D02*
X0051213Y0099318D01*
X0052489Y0100917D02*
X0028770Y0100917D01*
X0028770Y0102515D02*
X0052799Y0102515D01*
X0054022Y0104113D02*
X0028770Y0104113D01*
X0028770Y0105712D02*
X0144570Y0105712D01*
X0144570Y0107310D02*
X0028770Y0107310D01*
X0028770Y0108909D02*
X0144570Y0108909D01*
X0144570Y0110507D02*
X0028770Y0110507D01*
X0028770Y0112106D02*
X0144570Y0112106D01*
X0144570Y0113704D02*
X0028770Y0113704D01*
X0028770Y0115302D02*
X0144570Y0115302D01*
X0144570Y0116901D02*
X0028770Y0116901D01*
X0028770Y0118499D02*
X0144570Y0118499D01*
X0144570Y0120098D02*
X0028770Y0120098D01*
X0028770Y0121696D02*
X0144570Y0121696D01*
X0144570Y0123294D02*
X0111178Y0123294D01*
X0111124Y0123277D02*
X0111797Y0123496D01*
X0112428Y0123817D01*
X0113001Y0124233D01*
X0113502Y0124735D01*
X0113919Y0125307D01*
X0114240Y0125939D01*
X0114459Y0126612D01*
X0114570Y0127312D01*
X0114570Y0127664D01*
X0110074Y0127664D01*
X0110074Y0127668D01*
X0114570Y0127668D01*
X0114570Y0128020D01*
X0114459Y0128720D01*
X0114240Y0129393D01*
X0113919Y0130024D01*
X0113502Y0130597D01*
X0113001Y0131098D01*
X0112428Y0131515D01*
X0111797Y0131836D01*
X0111124Y0132055D01*
X0110424Y0132166D01*
X0110072Y0132166D01*
X0110072Y0127670D01*
X0110068Y0127670D01*
X0110068Y0132166D01*
X0109716Y0132166D01*
X0109016Y0132055D01*
X0108343Y0131836D01*
X0107711Y0131515D01*
X0107139Y0131098D01*
X0106637Y0130597D01*
X0106221Y0130024D01*
X0105900Y0129393D01*
X0105681Y0128720D01*
X0105570Y0128020D01*
X0105570Y0127668D01*
X0110066Y0127668D01*
X0110066Y0127664D01*
X0105570Y0127664D01*
X0105570Y0127312D01*
X0105681Y0126612D01*
X0105900Y0125939D01*
X0106221Y0125307D01*
X0106637Y0124735D01*
X0107139Y0124233D01*
X0107711Y0123817D01*
X0108343Y0123496D01*
X0109016Y0123277D01*
X0109716Y0123166D01*
X0110068Y0123166D01*
X0110068Y0127662D01*
X0110072Y0127662D01*
X0110072Y0123166D01*
X0110424Y0123166D01*
X0111124Y0123277D01*
X0110072Y0123294D02*
X0110068Y0123294D01*
X0108961Y0123294D02*
X0028770Y0123294D01*
X0028770Y0124893D02*
X0096762Y0124893D01*
X0096425Y0125230D02*
X0097634Y0124021D01*
X0099215Y0123366D01*
X0100925Y0123366D01*
X0102506Y0124021D01*
X0103715Y0125230D01*
X0104370Y0126811D01*
X0104370Y0128521D01*
X0103715Y0130102D01*
X0102506Y0131311D01*
X0100925Y0131966D01*
X0099215Y0131966D01*
X0097634Y0131311D01*
X0096425Y0130102D01*
X0095770Y0128521D01*
X0095770Y0126811D01*
X0096425Y0125230D01*
X0095902Y0126491D02*
X0028770Y0126491D01*
X0028770Y0128090D02*
X0095770Y0128090D01*
X0096254Y0129688D02*
X0028770Y0129688D01*
X0028770Y0131287D02*
X0097610Y0131287D01*
X0102530Y0131287D02*
X0107398Y0131287D01*
X0106050Y0129688D02*
X0103887Y0129688D01*
X0104370Y0128090D02*
X0105581Y0128090D01*
X0105720Y0126491D02*
X0104237Y0126491D01*
X0103378Y0124893D02*
X0106522Y0124893D01*
X0110068Y0124893D02*
X0110072Y0124893D01*
X0110068Y0126491D02*
X0110072Y0126491D01*
X0110068Y0128090D02*
X0110072Y0128090D01*
X0110068Y0129688D02*
X0110072Y0129688D01*
X0110068Y0131287D02*
X0110072Y0131287D01*
X0112743Y0131287D02*
X0144570Y0131287D01*
X0144570Y0132885D02*
X0028770Y0132885D01*
X0028770Y0134483D02*
X0144570Y0134483D01*
X0144570Y0136082D02*
X0028770Y0136082D01*
X0028770Y0137680D02*
X0135756Y0137680D01*
X0135565Y0137872D02*
X0136628Y0136809D01*
X0138018Y0136233D01*
X0139522Y0136233D01*
X0140912Y0136809D01*
X0141975Y0137872D01*
X0142551Y0139262D01*
X0142551Y0140766D01*
X0141975Y0142156D01*
X0140912Y0143219D01*
X0139522Y0143795D01*
X0138383Y0143795D01*
X0121030Y0161148D01*
X0120147Y0161514D01*
X0119193Y0161514D01*
X0099917Y0161514D01*
X0099817Y0161614D01*
X0109293Y0161614D01*
X0110247Y0161614D01*
X0111130Y0161980D01*
X0116464Y0167314D01*
X0150976Y0167314D01*
X0145610Y0161948D01*
X0144935Y0161274D01*
X0144570Y0160391D01*
X0144570Y0092961D01*
X0143765Y0092156D01*
X0143189Y0090766D01*
X0143189Y0089262D01*
X0143765Y0087872D01*
X0144828Y0086809D01*
X0146218Y0086233D01*
X0147722Y0086233D01*
X0149112Y0086809D01*
X0150175Y0087872D01*
X0150751Y0089262D01*
X0150751Y0090766D01*
X0150175Y0092156D01*
X0149370Y0092961D01*
X0149370Y0158920D01*
X0156383Y0165933D01*
X0157522Y0165933D01*
X0158912Y0166509D01*
X0159975Y0167572D01*
X0160551Y0168962D01*
X0160551Y0170466D01*
X0159975Y0171856D01*
X0158912Y0172919D01*
X0157522Y0173495D01*
X0156018Y0173495D01*
X0154628Y0172919D01*
X0153823Y0172114D01*
X0114993Y0172114D01*
X0114110Y0171748D01*
X0113435Y0171074D01*
X0108776Y0166414D01*
X0081393Y0166414D01*
X0080510Y0166048D01*
X0079835Y0165374D01*
X0074657Y0160195D01*
X0073518Y0160195D01*
X0072128Y0159619D01*
X0071065Y0158556D01*
X0070489Y0157166D01*
X0070489Y0155662D01*
X0071065Y0154272D01*
X0072128Y0153209D01*
X0073518Y0152633D01*
X0075022Y0152633D01*
X0076412Y0153209D01*
X0077475Y0154272D01*
X0078051Y0155662D01*
X0078051Y0156801D01*
X0082864Y0161614D01*
X0094123Y0161614D01*
X0093765Y0161256D01*
X0093189Y0159866D01*
X0093189Y0158362D01*
X0093765Y0156972D01*
X0094828Y0155909D01*
X0096218Y0155333D01*
X0097722Y0155333D01*
X0099112Y0155909D01*
X0099917Y0156714D01*
X0118676Y0156714D01*
X0134989Y0140401D01*
X0134989Y0139262D01*
X0135565Y0137872D01*
X0134989Y0139279D02*
X0028770Y0139279D01*
X0028770Y0140877D02*
X0134513Y0140877D01*
X0132914Y0142476D02*
X0028770Y0142476D01*
X0028770Y0144074D02*
X0131316Y0144074D01*
X0129717Y0145672D02*
X0028770Y0145672D01*
X0028770Y0147271D02*
X0128119Y0147271D01*
X0126520Y0148869D02*
X0028770Y0148869D01*
X0028770Y0150468D02*
X0124922Y0150468D01*
X0123324Y0152066D02*
X0028770Y0152066D01*
X0028770Y0153665D02*
X0071672Y0153665D01*
X0070654Y0155263D02*
X0028770Y0155263D01*
X0028770Y0156861D02*
X0070489Y0156861D01*
X0071025Y0158460D02*
X0028770Y0158460D01*
X0028770Y0160058D02*
X0073188Y0160058D01*
X0076119Y0161657D02*
X0028770Y0161657D01*
X0028770Y0163255D02*
X0077717Y0163255D01*
X0079315Y0164854D02*
X0028770Y0164854D01*
X0028770Y0166452D02*
X0108814Y0166452D01*
X0110412Y0168050D02*
X0028770Y0168050D01*
X0028770Y0169649D02*
X0112011Y0169649D01*
X0113609Y0171247D02*
X0028770Y0171247D01*
X0028770Y0172846D02*
X0154555Y0172846D01*
X0156770Y0169714D02*
X0115470Y0169714D01*
X0109770Y0164014D01*
X0081870Y0164014D01*
X0074270Y0156414D01*
X0076868Y0153665D02*
X0121725Y0153665D01*
X0120127Y0155263D02*
X0077885Y0155263D01*
X0078111Y0156861D02*
X0093875Y0156861D01*
X0093189Y0158460D02*
X0079710Y0158460D01*
X0081308Y0160058D02*
X0093269Y0160058D01*
X0096970Y0159114D02*
X0119670Y0159114D01*
X0138770Y0140014D01*
X0141656Y0142476D02*
X0144570Y0142476D01*
X0144570Y0144074D02*
X0138104Y0144074D01*
X0136506Y0145672D02*
X0144570Y0145672D01*
X0144570Y0147271D02*
X0134907Y0147271D01*
X0133309Y0148869D02*
X0144570Y0148869D01*
X0144570Y0150468D02*
X0131710Y0150468D01*
X0130112Y0152066D02*
X0144570Y0152066D01*
X0144570Y0153665D02*
X0128513Y0153665D01*
X0126915Y0155263D02*
X0144570Y0155263D01*
X0144570Y0156861D02*
X0125317Y0156861D01*
X0123718Y0158460D02*
X0144570Y0158460D01*
X0144570Y0160058D02*
X0122120Y0160058D01*
X0114004Y0164854D02*
X0148516Y0164854D01*
X0150114Y0166452D02*
X0115602Y0166452D01*
X0112405Y0163255D02*
X0146917Y0163255D01*
X0145319Y0161657D02*
X0110350Y0161657D01*
X0085112Y0185009D02*
X0083722Y0184433D01*
X0082218Y0184433D01*
X0080828Y0185009D01*
X0080270Y0185567D01*
X0079312Y0184609D01*
X0077922Y0184033D01*
X0076418Y0184033D01*
X0075028Y0184609D01*
X0073965Y0185672D01*
X0073389Y0187062D01*
X0073389Y0188566D01*
X0073965Y0189956D01*
X0074970Y0190961D01*
X0074970Y0200503D01*
X0068626Y0206846D01*
X0067824Y0206514D01*
X0065715Y0206514D01*
X0063768Y0207321D01*
X0062277Y0208812D01*
X0061770Y0210036D01*
X0061263Y0208812D01*
X0059772Y0207321D01*
X0057824Y0206514D01*
X0055715Y0206514D01*
X0053768Y0207321D01*
X0052277Y0208812D01*
X0051770Y0210036D01*
X0051263Y0208812D01*
X0049772Y0207321D01*
X0047824Y0206514D01*
X0045715Y0206514D01*
X0043768Y0207321D01*
X0042277Y0208812D01*
X0041470Y0210759D01*
X0041470Y0212869D01*
X0042277Y0214816D01*
X0043768Y0216307D01*
X0045715Y0217114D01*
X0047824Y0217114D01*
X0049772Y0216307D01*
X0051263Y0214816D01*
X0051770Y0213592D01*
X0052277Y0214816D01*
X0053768Y0216307D01*
X0055715Y0217114D01*
X0057824Y0217114D01*
X0059772Y0216307D01*
X0061263Y0214816D01*
X0061770Y0213592D01*
X0062277Y0214816D01*
X0063768Y0216307D01*
X0065715Y0217114D01*
X0067824Y0217114D01*
X0069772Y0216307D01*
X0071263Y0214816D01*
X0071770Y0213592D01*
X0072277Y0214816D01*
X0073768Y0216307D01*
X0075715Y0217114D01*
X0077824Y0217114D01*
X0079772Y0216307D01*
X0081263Y0214816D01*
X0081770Y0213592D01*
X0082277Y0214816D01*
X0083768Y0216307D01*
X0085715Y0217114D01*
X0087824Y0217114D01*
X0089772Y0216307D01*
X0091263Y0214816D01*
X0091770Y0213592D01*
X0092277Y0214816D01*
X0093768Y0216307D01*
X0095715Y0217114D01*
X0097824Y0217114D01*
X0099772Y0216307D01*
X0101263Y0214816D01*
X0102070Y0212869D01*
X0102070Y0210759D01*
X0101820Y0210157D01*
X0112764Y0199214D01*
X0128922Y0199214D01*
X0129728Y0200019D01*
X0111959Y0200019D01*
X0110361Y0201617D02*
X0249770Y0201617D01*
X0249770Y0200019D02*
X0134012Y0200019D01*
X0132622Y0200595D01*
X0131118Y0200595D01*
X0129728Y0200019D01*
X0131870Y0196814D02*
X0111770Y0196814D01*
X0096770Y0211814D01*
X0092107Y0214405D02*
X0091433Y0214405D01*
X0090076Y0216003D02*
X0093464Y0216003D01*
X0100076Y0216003D02*
X0113464Y0216003D01*
X0113768Y0216307D02*
X0112277Y0214816D01*
X0111470Y0212869D01*
X0111470Y0210759D01*
X0112277Y0208812D01*
X0113768Y0207321D01*
X0115715Y0206514D01*
X0117824Y0206514D01*
X0119772Y0207321D01*
X0121263Y0208812D01*
X0121655Y0209759D01*
X0121673Y0209703D01*
X0122066Y0208931D01*
X0122575Y0208231D01*
X0123187Y0207619D01*
X0123887Y0207110D01*
X0124659Y0206717D01*
X0125482Y0206450D01*
X0126337Y0206314D01*
X0126569Y0206314D01*
X0126569Y0211611D01*
X0126970Y0211611D01*
X0126970Y0206314D01*
X0127203Y0206314D01*
X0128058Y0206450D01*
X0128881Y0206717D01*
X0129652Y0207110D01*
X0130353Y0207619D01*
X0130965Y0208231D01*
X0131474Y0208931D01*
X0131770Y0209513D01*
X0132066Y0208931D01*
X0132575Y0208231D01*
X0133187Y0207619D01*
X0133887Y0207110D01*
X0134659Y0206717D01*
X0135482Y0206450D01*
X0136337Y0206314D01*
X0136569Y0206314D01*
X0136569Y0211611D01*
X0136970Y0211611D01*
X0136970Y0206314D01*
X0137203Y0206314D01*
X0138058Y0206450D01*
X0138881Y0206717D01*
X0139652Y0207110D01*
X0140353Y0207619D01*
X0140965Y0208231D01*
X0141474Y0208931D01*
X0141867Y0209703D01*
X0141885Y0209759D01*
X0142277Y0208812D01*
X0143768Y0207321D01*
X0145715Y0206514D01*
X0147824Y0206514D01*
X0149772Y0207321D01*
X0151263Y0208812D01*
X0151770Y0210036D01*
X0152277Y0208812D01*
X0153768Y0207321D01*
X0155715Y0206514D01*
X0157824Y0206514D01*
X0159772Y0207321D01*
X0161263Y0208812D01*
X0161770Y0210036D01*
X0162277Y0208812D01*
X0163768Y0207321D01*
X0165715Y0206514D01*
X0167824Y0206514D01*
X0169772Y0207321D01*
X0171263Y0208812D01*
X0172070Y0210759D01*
X0172070Y0212869D01*
X0171263Y0214816D01*
X0169772Y0216307D01*
X0167824Y0217114D01*
X0165715Y0217114D01*
X0163768Y0216307D01*
X0162277Y0214816D01*
X0161770Y0213592D01*
X0161263Y0214816D01*
X0159772Y0216307D01*
X0157824Y0217114D01*
X0155715Y0217114D01*
X0153768Y0216307D01*
X0152277Y0214816D01*
X0151770Y0213592D01*
X0151263Y0214816D01*
X0149772Y0216307D01*
X0147824Y0217114D01*
X0145715Y0217114D01*
X0143768Y0216307D01*
X0142277Y0214816D01*
X0141885Y0213869D01*
X0141867Y0213925D01*
X0141474Y0214696D01*
X0140965Y0215397D01*
X0140353Y0216009D01*
X0139652Y0216518D01*
X0138881Y0216911D01*
X0138058Y0217178D01*
X0137203Y0217314D01*
X0136970Y0217314D01*
X0136970Y0212017D01*
X0136569Y0212017D01*
X0136569Y0217314D01*
X0136337Y0217314D01*
X0135482Y0217178D01*
X0134659Y0216911D01*
X0133887Y0216518D01*
X0133187Y0216009D01*
X0132575Y0215397D01*
X0132066Y0214696D01*
X0131770Y0214115D01*
X0131474Y0214696D01*
X0130965Y0215397D01*
X0130353Y0216009D01*
X0129652Y0216518D01*
X0128881Y0216911D01*
X0128058Y0217178D01*
X0127203Y0217314D01*
X0126970Y0217314D01*
X0126970Y0212017D01*
X0126569Y0212017D01*
X0126569Y0217314D01*
X0126337Y0217314D01*
X0125482Y0217178D01*
X0124659Y0216911D01*
X0123887Y0216518D01*
X0123187Y0216009D01*
X0122575Y0215397D01*
X0122066Y0214696D01*
X0121673Y0213925D01*
X0121655Y0213869D01*
X0121263Y0214816D01*
X0119772Y0216307D01*
X0117824Y0217114D01*
X0115715Y0217114D01*
X0113768Y0216307D01*
X0112107Y0214405D02*
X0101433Y0214405D01*
X0102070Y0212806D02*
X0111470Y0212806D01*
X0111470Y0211208D02*
X0102070Y0211208D01*
X0102369Y0209609D02*
X0111946Y0209609D01*
X0113078Y0208011D02*
X0103967Y0208011D01*
X0105565Y0206413D02*
X0125715Y0206413D01*
X0126569Y0206413D02*
X0126970Y0206413D01*
X0127824Y0206413D02*
X0135715Y0206413D01*
X0136569Y0206413D02*
X0136970Y0206413D01*
X0137824Y0206413D02*
X0249770Y0206413D01*
X0249770Y0208011D02*
X0170462Y0208011D01*
X0171593Y0209609D02*
X0249770Y0209609D01*
X0249770Y0211208D02*
X0172070Y0211208D01*
X0172070Y0212806D02*
X0249770Y0212806D01*
X0249770Y0214405D02*
X0171433Y0214405D01*
X0170076Y0216003D02*
X0249770Y0216003D01*
X0249770Y0217602D02*
X0028770Y0217602D01*
X0028770Y0219200D02*
X0249770Y0219200D01*
X0249770Y0220798D02*
X0028770Y0220798D01*
X0028770Y0222397D02*
X0249770Y0222397D01*
X0249770Y0223995D02*
X0028770Y0223995D01*
X0028770Y0216003D02*
X0043464Y0216003D01*
X0042107Y0214405D02*
X0028770Y0214405D01*
X0028770Y0212806D02*
X0041470Y0212806D01*
X0041470Y0211208D02*
X0028770Y0211208D01*
X0028770Y0209609D02*
X0041946Y0209609D01*
X0043078Y0208011D02*
X0028770Y0208011D01*
X0028770Y0206413D02*
X0069060Y0206413D01*
X0070659Y0204814D02*
X0028770Y0204814D01*
X0028770Y0203216D02*
X0072257Y0203216D01*
X0073856Y0201617D02*
X0028770Y0201617D01*
X0028770Y0200019D02*
X0074970Y0200019D01*
X0074970Y0198420D02*
X0028770Y0198420D01*
X0028770Y0196822D02*
X0074970Y0196822D01*
X0074970Y0195224D02*
X0028770Y0195224D01*
X0028770Y0193625D02*
X0074970Y0193625D01*
X0074970Y0192027D02*
X0028770Y0192027D01*
X0028770Y0190428D02*
X0074437Y0190428D01*
X0073498Y0188830D02*
X0028770Y0188830D01*
X0028770Y0187231D02*
X0073389Y0187231D01*
X0074004Y0185633D02*
X0028770Y0185633D01*
X0028770Y0184035D02*
X0076414Y0184035D01*
X0077926Y0184035D02*
X0184146Y0184035D01*
X0184093Y0184057D02*
X0184270Y0183983D01*
X0184270Y0121760D01*
X0184223Y0121535D01*
X0184270Y0121288D01*
X0184270Y0121037D01*
X0184359Y0120823D01*
X0184402Y0120596D01*
X0184539Y0120387D01*
X0184635Y0120154D01*
X0184799Y0119991D01*
X0213951Y0075556D01*
X0213789Y0075166D01*
X0213789Y0073662D01*
X0214365Y0072272D01*
X0215428Y0071209D01*
X0216818Y0070633D01*
X0218322Y0070633D01*
X0219712Y0071209D01*
X0220775Y0072272D01*
X0221351Y0073662D01*
X0221351Y0075166D01*
X0220775Y0076556D01*
X0219712Y0077619D01*
X0218322Y0078195D01*
X0217959Y0078195D01*
X0189070Y0122231D01*
X0189070Y0183983D01*
X0189247Y0184057D01*
X0190527Y0185337D01*
X0191220Y0187009D01*
X0191220Y0188819D01*
X0190527Y0190491D01*
X0189247Y0191771D01*
X0187575Y0192464D01*
X0185765Y0192464D01*
X0184093Y0191771D01*
X0182813Y0190491D01*
X0182120Y0188819D01*
X0182120Y0187009D01*
X0182813Y0185337D01*
X0184093Y0184057D01*
X0184270Y0182436D02*
X0028770Y0182436D01*
X0028770Y0180838D02*
X0184270Y0180838D01*
X0184270Y0179239D02*
X0028770Y0179239D01*
X0028770Y0177641D02*
X0184270Y0177641D01*
X0184270Y0176043D02*
X0028770Y0176043D01*
X0028770Y0174444D02*
X0184270Y0174444D01*
X0184270Y0172846D02*
X0158985Y0172846D01*
X0160228Y0171247D02*
X0184270Y0171247D01*
X0184270Y0169649D02*
X0160551Y0169649D01*
X0160173Y0168050D02*
X0184270Y0168050D01*
X0184270Y0166452D02*
X0158775Y0166452D01*
X0155304Y0164854D02*
X0184270Y0164854D01*
X0184270Y0163255D02*
X0153705Y0163255D01*
X0152107Y0161657D02*
X0184270Y0161657D01*
X0184270Y0160058D02*
X0150508Y0160058D01*
X0149370Y0158460D02*
X0184270Y0158460D01*
X0184270Y0156861D02*
X0149370Y0156861D01*
X0149370Y0155263D02*
X0184270Y0155263D01*
X0184270Y0153665D02*
X0149370Y0153665D01*
X0149370Y0152066D02*
X0184270Y0152066D01*
X0184270Y0150468D02*
X0149370Y0150468D01*
X0149370Y0148869D02*
X0184270Y0148869D01*
X0184270Y0147271D02*
X0149370Y0147271D01*
X0149370Y0145672D02*
X0184270Y0145672D01*
X0184270Y0144074D02*
X0149370Y0144074D01*
X0149370Y0142476D02*
X0184270Y0142476D01*
X0184270Y0140877D02*
X0149370Y0140877D01*
X0149370Y0139279D02*
X0184270Y0139279D01*
X0184270Y0137680D02*
X0149370Y0137680D01*
X0149370Y0136082D02*
X0184270Y0136082D01*
X0184270Y0134483D02*
X0149370Y0134483D01*
X0149370Y0132885D02*
X0184270Y0132885D01*
X0184270Y0131287D02*
X0149370Y0131287D01*
X0149370Y0129688D02*
X0184270Y0129688D01*
X0184270Y0128090D02*
X0149370Y0128090D01*
X0149370Y0126491D02*
X0184270Y0126491D01*
X0184270Y0124893D02*
X0149370Y0124893D01*
X0149370Y0123294D02*
X0184270Y0123294D01*
X0184257Y0121696D02*
X0149370Y0121696D01*
X0149370Y0120098D02*
X0184692Y0120098D01*
X0185777Y0118499D02*
X0149370Y0118499D01*
X0149370Y0116901D02*
X0186826Y0116901D01*
X0187874Y0115302D02*
X0149370Y0115302D01*
X0149370Y0113704D02*
X0188923Y0113704D01*
X0189972Y0112106D02*
X0149370Y0112106D01*
X0149370Y0110507D02*
X0191020Y0110507D01*
X0192069Y0108909D02*
X0149370Y0108909D01*
X0149370Y0107310D02*
X0193118Y0107310D01*
X0194167Y0105712D02*
X0149370Y0105712D01*
X0149370Y0104113D02*
X0195215Y0104113D01*
X0196264Y0102515D02*
X0149370Y0102515D01*
X0149370Y0100917D02*
X0197313Y0100917D01*
X0198361Y0099318D02*
X0149370Y0099318D01*
X0149370Y0097720D02*
X0199410Y0097720D01*
X0200459Y0096121D02*
X0149370Y0096121D01*
X0149370Y0094523D02*
X0201507Y0094523D01*
X0202556Y0092924D02*
X0168807Y0092924D01*
X0168512Y0093219D02*
X0169317Y0092414D01*
X0173247Y0092414D01*
X0174130Y0092048D01*
X0174804Y0091374D01*
X0174804Y0091373D01*
X0188383Y0077795D01*
X0189522Y0077795D01*
X0190912Y0077219D01*
X0191975Y0076156D01*
X0192551Y0074766D01*
X0192551Y0073262D01*
X0191975Y0071872D01*
X0190912Y0070809D01*
X0189522Y0070233D01*
X0188018Y0070233D01*
X0186628Y0070809D01*
X0185565Y0071872D01*
X0184989Y0073262D01*
X0184989Y0074401D01*
X0171776Y0087614D01*
X0169317Y0087614D01*
X0168512Y0086809D01*
X0167122Y0086233D01*
X0165618Y0086233D01*
X0164228Y0086809D01*
X0163165Y0087872D01*
X0162589Y0089262D01*
X0162589Y0090766D01*
X0163165Y0092156D01*
X0164228Y0093219D01*
X0165618Y0093795D01*
X0167122Y0093795D01*
X0168512Y0093219D01*
X0166370Y0090014D02*
X0172770Y0090014D01*
X0188770Y0074014D01*
X0187261Y0070546D02*
X0081296Y0070546D01*
X0079698Y0068948D02*
X0249770Y0068948D01*
X0249770Y0067350D02*
X0078670Y0067350D01*
X0078670Y0065751D02*
X0249770Y0065751D01*
X0249770Y0064153D02*
X0078670Y0064153D01*
X0078670Y0062554D02*
X0249770Y0062554D01*
X0249770Y0060956D02*
X0079724Y0060956D01*
X0080051Y0059357D02*
X0249770Y0059357D01*
X0249770Y0057759D02*
X0142974Y0057759D01*
X0144539Y0056161D02*
X0249770Y0056161D01*
X0249770Y0054562D02*
X0185369Y0054562D01*
X0185112Y0054819D02*
X0183722Y0055395D01*
X0182218Y0055395D01*
X0180828Y0054819D01*
X0180022Y0054014D01*
X0171917Y0054014D01*
X0171612Y0054319D01*
X0170222Y0054895D01*
X0168718Y0054895D01*
X0167328Y0054319D01*
X0166265Y0053256D01*
X0165689Y0051866D01*
X0165689Y0050362D01*
X0166265Y0048972D01*
X0167223Y0048014D01*
X0160917Y0048014D01*
X0160112Y0048819D01*
X0158722Y0049395D01*
X0157218Y0049395D01*
X0155828Y0048819D01*
X0154765Y0047756D01*
X0154189Y0046366D01*
X0154189Y0044862D01*
X0154765Y0043472D01*
X0155828Y0042409D01*
X0157218Y0041833D01*
X0158722Y0041833D01*
X0160112Y0042409D01*
X0160917Y0043214D01*
X0173622Y0043214D01*
X0174028Y0042809D01*
X0175418Y0042233D01*
X0176922Y0042233D01*
X0178312Y0042809D01*
X0179375Y0043872D01*
X0179951Y0045262D01*
X0179951Y0046766D01*
X0179375Y0048156D01*
X0178317Y0049214D01*
X0180022Y0049214D01*
X0180828Y0048409D01*
X0182218Y0047833D01*
X0183722Y0047833D01*
X0185112Y0048409D01*
X0186175Y0049472D01*
X0186751Y0050862D01*
X0186751Y0052366D01*
X0186175Y0053756D01*
X0185112Y0054819D01*
X0186504Y0052964D02*
X0249770Y0052964D01*
X0249770Y0051365D02*
X0186751Y0051365D01*
X0186297Y0049767D02*
X0249770Y0049767D01*
X0249770Y0048169D02*
X0184532Y0048169D01*
X0181407Y0048169D02*
X0179363Y0048169D01*
X0179951Y0046570D02*
X0249770Y0046570D01*
X0249770Y0044972D02*
X0179830Y0044972D01*
X0178876Y0043373D02*
X0249770Y0043373D01*
X0249770Y0041775D02*
X0171756Y0041775D01*
X0172957Y0040176D02*
X0249770Y0040176D01*
X0249770Y0038578D02*
X0173251Y0038578D01*
X0172844Y0036980D02*
X0249770Y0036980D01*
X0249770Y0035381D02*
X0171304Y0035381D01*
X0167933Y0033783D02*
X0249770Y0033783D01*
X0249770Y0032184D02*
X0171247Y0032184D01*
X0172453Y0030586D02*
X0217907Y0030586D01*
X0217313Y0029991D02*
X0218593Y0031271D01*
X0220265Y0031964D01*
X0222075Y0031964D01*
X0223747Y0031271D01*
X0225027Y0029991D01*
X0225720Y0028319D01*
X0225720Y0026509D01*
X0225027Y0024837D01*
X0223747Y0023557D01*
X0222075Y0022864D01*
X0220265Y0022864D01*
X0218593Y0023557D01*
X0217313Y0024837D01*
X0216620Y0026509D01*
X0216620Y0028319D01*
X0217313Y0029991D01*
X0216897Y0028987D02*
X0172751Y0028987D01*
X0172347Y0027389D02*
X0216620Y0027389D01*
X0216917Y0025791D02*
X0205289Y0025791D01*
X0206522Y0024192D02*
X0217957Y0024192D01*
X0224383Y0024192D02*
X0227957Y0024192D01*
X0228593Y0023557D02*
X0230265Y0022864D01*
X0232075Y0022864D01*
X0233747Y0023557D01*
X0235027Y0024837D01*
X0235720Y0026509D01*
X0235720Y0028319D01*
X0235027Y0029991D01*
X0233747Y0031271D01*
X0232075Y0031964D01*
X0230265Y0031964D01*
X0228593Y0031271D01*
X0227313Y0029991D01*
X0226620Y0028319D01*
X0226620Y0026509D01*
X0227313Y0024837D01*
X0228593Y0023557D01*
X0226917Y0025791D02*
X0225422Y0025791D01*
X0225720Y0027389D02*
X0226620Y0027389D01*
X0226897Y0028987D02*
X0225443Y0028987D01*
X0224433Y0030586D02*
X0227907Y0030586D01*
X0234433Y0030586D02*
X0237907Y0030586D01*
X0237313Y0029991D02*
X0238593Y0031271D01*
X0240265Y0031964D01*
X0242075Y0031964D01*
X0243747Y0031271D01*
X0245027Y0029991D01*
X0245720Y0028319D01*
X0245720Y0026509D01*
X0245027Y0024837D01*
X0243747Y0023557D01*
X0242075Y0022864D01*
X0240265Y0022864D01*
X0238593Y0023557D01*
X0237313Y0024837D01*
X0236620Y0026509D01*
X0236620Y0028319D01*
X0237313Y0029991D01*
X0236897Y0028987D02*
X0235443Y0028987D01*
X0235720Y0027389D02*
X0236620Y0027389D01*
X0236917Y0025791D02*
X0235422Y0025791D01*
X0234383Y0024192D02*
X0237957Y0024192D01*
X0244383Y0024192D02*
X0249770Y0024192D01*
X0249770Y0025791D02*
X0245422Y0025791D01*
X0245720Y0027389D02*
X0249770Y0027389D01*
X0249770Y0028987D02*
X0245443Y0028987D01*
X0244433Y0030586D02*
X0249770Y0030586D01*
X0249770Y0022594D02*
X0207070Y0022594D01*
X0207070Y0020995D02*
X0249770Y0020995D01*
X0249770Y0019397D02*
X0206505Y0019397D01*
X0205250Y0017798D02*
X0249770Y0017798D01*
X0249770Y0016200D02*
X0149550Y0016200D01*
X0147951Y0014602D02*
X0249770Y0014602D01*
X0249770Y0013003D02*
X0146353Y0013003D01*
X0144870Y0014914D02*
X0042470Y0014914D01*
X0038970Y0014914D01*
X0051522Y0024192D02*
X0052019Y0024192D01*
X0053251Y0025791D02*
X0050289Y0025791D01*
X0053270Y0034514D02*
X0053270Y0098014D01*
X0056270Y0101014D01*
X0059741Y0102515D02*
X0144570Y0102515D01*
X0144570Y0100917D02*
X0060051Y0100917D01*
X0059660Y0099318D02*
X0087579Y0099318D01*
X0085881Y0097720D02*
X0058197Y0097720D01*
X0055670Y0096121D02*
X0084283Y0096121D01*
X0082685Y0094523D02*
X0055670Y0094523D01*
X0055670Y0092924D02*
X0081086Y0092924D01*
X0079488Y0091326D02*
X0055670Y0091326D01*
X0055670Y0089728D02*
X0077889Y0089728D01*
X0076291Y0088129D02*
X0055670Y0088129D01*
X0055670Y0086531D02*
X0074693Y0086531D01*
X0073094Y0084932D02*
X0055670Y0084932D01*
X0055670Y0083334D02*
X0071496Y0083334D01*
X0069897Y0081735D02*
X0055670Y0081735D01*
X0055670Y0080137D02*
X0068299Y0080137D01*
X0066700Y0078539D02*
X0055670Y0078539D01*
X0055670Y0076940D02*
X0065102Y0076940D01*
X0063504Y0075342D02*
X0055670Y0075342D01*
X0055670Y0073743D02*
X0061905Y0073743D01*
X0060307Y0072145D02*
X0055670Y0072145D01*
X0055670Y0070546D02*
X0059270Y0070546D01*
X0059370Y0068948D02*
X0055670Y0068948D01*
X0055670Y0067350D02*
X0059370Y0067350D01*
X0059370Y0065751D02*
X0055670Y0065751D01*
X0055670Y0064153D02*
X0059370Y0064153D01*
X0059370Y0062554D02*
X0055670Y0062554D01*
X0055670Y0060956D02*
X0059370Y0060956D01*
X0059832Y0059357D02*
X0055670Y0059357D01*
X0055670Y0057759D02*
X0061431Y0057759D01*
X0063029Y0056161D02*
X0055670Y0056161D01*
X0055670Y0054562D02*
X0064628Y0054562D01*
X0066226Y0052964D02*
X0055670Y0052964D01*
X0055670Y0051365D02*
X0067824Y0051365D01*
X0069423Y0049767D02*
X0055670Y0049767D01*
X0055670Y0048169D02*
X0071021Y0048169D01*
X0072620Y0046570D02*
X0055670Y0046570D01*
X0055670Y0044972D02*
X0074218Y0044972D01*
X0074858Y0043373D02*
X0075817Y0043373D01*
X0075882Y0041775D02*
X0077415Y0041775D01*
X0076051Y0040176D02*
X0079013Y0040176D01*
X0080612Y0038578D02*
X0075519Y0038578D01*
X0074670Y0036980D02*
X0082210Y0036980D01*
X0083809Y0035381D02*
X0075297Y0035381D01*
X0076895Y0033783D02*
X0085407Y0033783D01*
X0087006Y0032184D02*
X0078494Y0032184D01*
X0080092Y0030586D02*
X0087922Y0030586D01*
X0089970Y0031914D02*
X0089970Y0032614D01*
X0061770Y0060814D01*
X0061770Y0070014D01*
X0061670Y0070114D01*
X0088770Y0097214D01*
X0108644Y0097214D01*
X0115870Y0090014D01*
X0118821Y0086531D02*
X0118848Y0086531D01*
X0120413Y0084932D02*
X0095527Y0084932D01*
X0097091Y0086531D02*
X0097119Y0086531D01*
X0103021Y0086531D02*
X0104736Y0086531D01*
X0107894Y0086531D02*
X0108045Y0086531D01*
X0108045Y0088129D02*
X0107894Y0088129D01*
X0107894Y0089728D02*
X0108045Y0089728D01*
X0111204Y0086531D02*
X0112919Y0086531D01*
X0114745Y0094523D02*
X0114866Y0094523D01*
X0116874Y0094523D02*
X0119840Y0094523D01*
X0122583Y0096121D02*
X0113141Y0096121D01*
X0111536Y0097720D02*
X0144570Y0097720D01*
X0144570Y0099318D02*
X0109836Y0099318D01*
X0125757Y0096121D02*
X0144570Y0096121D01*
X0144570Y0094523D02*
X0128500Y0094523D01*
X0129729Y0092924D02*
X0144533Y0092924D01*
X0143421Y0091326D02*
X0130391Y0091326D01*
X0130420Y0089728D02*
X0143189Y0089728D01*
X0143658Y0088129D02*
X0130154Y0088129D01*
X0129492Y0086531D02*
X0145499Y0086531D01*
X0148441Y0086531D02*
X0164899Y0086531D01*
X0163058Y0088129D02*
X0150281Y0088129D01*
X0150751Y0089728D02*
X0162589Y0089728D01*
X0162821Y0091326D02*
X0150519Y0091326D01*
X0149407Y0092924D02*
X0163933Y0092924D01*
X0167841Y0086531D02*
X0172859Y0086531D01*
X0174457Y0084932D02*
X0127927Y0084932D01*
X0146970Y0090014D02*
X0146970Y0159914D01*
X0156770Y0169714D01*
X0182690Y0185633D02*
X0094336Y0185633D01*
X0093912Y0185209D02*
X0094975Y0186272D01*
X0095551Y0187662D01*
X0095551Y0189166D01*
X0094975Y0190556D01*
X0093970Y0191561D01*
X0093970Y0207237D01*
X0095715Y0206514D01*
X0097824Y0206514D01*
X0098426Y0206764D01*
X0109735Y0195454D01*
X0110410Y0194780D01*
X0111293Y0194414D01*
X0128922Y0194414D01*
X0129728Y0193609D01*
X0131118Y0193033D01*
X0132622Y0193033D01*
X0134012Y0193609D01*
X0135075Y0194672D01*
X0135651Y0196062D01*
X0135651Y0197566D01*
X0135075Y0198956D01*
X0134012Y0200019D01*
X0135297Y0198420D02*
X0249770Y0198420D01*
X0249770Y0196822D02*
X0135651Y0196822D01*
X0135304Y0195224D02*
X0249770Y0195224D01*
X0249770Y0193625D02*
X0134028Y0193625D01*
X0129711Y0193625D02*
X0093970Y0193625D01*
X0093970Y0192027D02*
X0184709Y0192027D01*
X0182787Y0190428D02*
X0095028Y0190428D01*
X0095551Y0188830D02*
X0182125Y0188830D01*
X0182120Y0187231D02*
X0095372Y0187231D01*
X0093912Y0185209D02*
X0092522Y0184633D01*
X0091018Y0184633D01*
X0089628Y0185209D01*
X0088565Y0186272D01*
X0087989Y0187662D01*
X0087989Y0189166D01*
X0088565Y0190556D01*
X0089570Y0191561D01*
X0089570Y0205903D01*
X0088626Y0206846D01*
X0087824Y0206514D01*
X0085715Y0206514D01*
X0084802Y0206893D01*
X0085170Y0206525D01*
X0085170Y0191361D01*
X0086175Y0190356D01*
X0086751Y0188966D01*
X0086751Y0187462D01*
X0086175Y0186072D01*
X0085112Y0185009D01*
X0085736Y0185633D02*
X0089204Y0185633D01*
X0088167Y0187231D02*
X0086655Y0187231D01*
X0086751Y0188830D02*
X0087989Y0188830D01*
X0088512Y0190428D02*
X0086103Y0190428D01*
X0085170Y0192027D02*
X0089570Y0192027D01*
X0089570Y0193625D02*
X0085170Y0193625D01*
X0085170Y0195224D02*
X0089570Y0195224D01*
X0089570Y0196822D02*
X0085170Y0196822D01*
X0085170Y0198420D02*
X0089570Y0198420D01*
X0089570Y0200019D02*
X0085170Y0200019D01*
X0085170Y0201617D02*
X0089570Y0201617D01*
X0089570Y0203216D02*
X0085170Y0203216D01*
X0085170Y0204814D02*
X0089570Y0204814D01*
X0089060Y0206413D02*
X0085170Y0206413D01*
X0093970Y0206413D02*
X0098777Y0206413D01*
X0100376Y0204814D02*
X0093970Y0204814D01*
X0093970Y0203216D02*
X0101974Y0203216D01*
X0103572Y0201617D02*
X0093970Y0201617D01*
X0093970Y0200019D02*
X0105171Y0200019D01*
X0106769Y0198420D02*
X0093970Y0198420D01*
X0093970Y0196822D02*
X0108368Y0196822D01*
X0109966Y0195224D02*
X0093970Y0195224D01*
X0107164Y0204814D02*
X0249770Y0204814D01*
X0249770Y0203216D02*
X0108762Y0203216D01*
X0120462Y0208011D02*
X0122795Y0208011D01*
X0121720Y0209609D02*
X0121593Y0209609D01*
X0121433Y0214405D02*
X0121918Y0214405D01*
X0123181Y0216003D02*
X0120076Y0216003D01*
X0126569Y0216003D02*
X0126970Y0216003D01*
X0126970Y0214405D02*
X0126569Y0214405D01*
X0126569Y0212806D02*
X0126970Y0212806D01*
X0126972Y0212014D02*
X0132270Y0212014D01*
X0136567Y0212014D01*
X0136567Y0211613D01*
X0132270Y0211613D01*
X0126972Y0211613D01*
X0126972Y0212014D01*
X0126970Y0211208D02*
X0126569Y0211208D01*
X0126569Y0209609D02*
X0126970Y0209609D01*
X0126970Y0208011D02*
X0126569Y0208011D01*
X0130745Y0208011D02*
X0132795Y0208011D01*
X0136569Y0208011D02*
X0136970Y0208011D01*
X0136970Y0209609D02*
X0136569Y0209609D01*
X0136569Y0211208D02*
X0136970Y0211208D01*
X0136970Y0212806D02*
X0136569Y0212806D01*
X0136569Y0214405D02*
X0136970Y0214405D01*
X0136970Y0216003D02*
X0136569Y0216003D01*
X0133181Y0216003D02*
X0130359Y0216003D01*
X0131622Y0214405D02*
X0131918Y0214405D01*
X0140359Y0216003D02*
X0143464Y0216003D01*
X0142107Y0214405D02*
X0141622Y0214405D01*
X0141819Y0209609D02*
X0141946Y0209609D01*
X0143078Y0208011D02*
X0140745Y0208011D01*
X0150462Y0208011D02*
X0153078Y0208011D01*
X0151946Y0209609D02*
X0151593Y0209609D01*
X0151433Y0214405D02*
X0152107Y0214405D01*
X0153464Y0216003D02*
X0150076Y0216003D01*
X0160076Y0216003D02*
X0163464Y0216003D01*
X0162107Y0214405D02*
X0161433Y0214405D01*
X0161593Y0209609D02*
X0161946Y0209609D01*
X0163078Y0208011D02*
X0160462Y0208011D01*
X0188631Y0192027D02*
X0224709Y0192027D01*
X0224093Y0191771D02*
X0222813Y0190491D01*
X0222120Y0188819D01*
X0222120Y0187009D01*
X0222813Y0185337D01*
X0224093Y0184057D01*
X0225765Y0183364D01*
X0227575Y0183364D01*
X0229247Y0184057D01*
X0230527Y0185337D01*
X0231220Y0187009D01*
X0231220Y0188819D01*
X0230527Y0190491D01*
X0229247Y0191771D01*
X0227575Y0192464D01*
X0225765Y0192464D01*
X0224093Y0191771D01*
X0222787Y0190428D02*
X0190554Y0190428D01*
X0191215Y0188830D02*
X0222125Y0188830D01*
X0222120Y0187231D02*
X0191220Y0187231D01*
X0190650Y0185633D02*
X0222690Y0185633D01*
X0224146Y0184035D02*
X0189194Y0184035D01*
X0189070Y0182436D02*
X0249770Y0182436D01*
X0249770Y0180838D02*
X0189070Y0180838D01*
X0189070Y0179239D02*
X0249770Y0179239D01*
X0249770Y0177641D02*
X0189070Y0177641D01*
X0189070Y0176043D02*
X0249770Y0176043D01*
X0249770Y0174444D02*
X0189070Y0174444D01*
X0189070Y0172846D02*
X0249770Y0172846D01*
X0249770Y0171247D02*
X0189070Y0171247D01*
X0189070Y0169649D02*
X0249770Y0169649D01*
X0249770Y0168050D02*
X0189070Y0168050D01*
X0189070Y0166452D02*
X0249770Y0166452D01*
X0249770Y0164854D02*
X0189070Y0164854D01*
X0189070Y0163255D02*
X0249770Y0163255D01*
X0249770Y0161657D02*
X0189070Y0161657D01*
X0189070Y0160058D02*
X0249770Y0160058D01*
X0249770Y0158460D02*
X0189070Y0158460D01*
X0189070Y0156861D02*
X0249770Y0156861D01*
X0249770Y0155263D02*
X0189070Y0155263D01*
X0189070Y0153665D02*
X0249770Y0153665D01*
X0249770Y0152066D02*
X0189070Y0152066D01*
X0189070Y0150468D02*
X0249770Y0150468D01*
X0249770Y0148869D02*
X0189070Y0148869D01*
X0189070Y0147271D02*
X0249770Y0147271D01*
X0249770Y0145672D02*
X0189070Y0145672D01*
X0189070Y0144074D02*
X0249770Y0144074D01*
X0249770Y0142476D02*
X0189070Y0142476D01*
X0189070Y0140877D02*
X0249770Y0140877D01*
X0249770Y0139279D02*
X0189070Y0139279D01*
X0189070Y0137680D02*
X0249770Y0137680D01*
X0249770Y0136082D02*
X0189070Y0136082D01*
X0189070Y0134483D02*
X0249770Y0134483D01*
X0249770Y0132885D02*
X0189070Y0132885D01*
X0189070Y0131287D02*
X0249770Y0131287D01*
X0249770Y0129688D02*
X0189070Y0129688D01*
X0189070Y0128090D02*
X0249770Y0128090D01*
X0249770Y0126491D02*
X0189070Y0126491D01*
X0189070Y0124893D02*
X0249770Y0124893D01*
X0249770Y0123294D02*
X0189070Y0123294D01*
X0189420Y0121696D02*
X0249770Y0121696D01*
X0249770Y0120098D02*
X0190469Y0120098D01*
X0191518Y0118499D02*
X0249770Y0118499D01*
X0249770Y0116901D02*
X0192567Y0116901D01*
X0193615Y0115302D02*
X0249770Y0115302D01*
X0249770Y0113704D02*
X0194664Y0113704D01*
X0195713Y0112106D02*
X0249770Y0112106D01*
X0249770Y0110507D02*
X0196761Y0110507D01*
X0197810Y0108909D02*
X0249770Y0108909D01*
X0249770Y0107310D02*
X0198859Y0107310D01*
X0199907Y0105712D02*
X0249770Y0105712D01*
X0249770Y0104113D02*
X0200956Y0104113D01*
X0202004Y0102515D02*
X0249770Y0102515D01*
X0249770Y0100917D02*
X0203053Y0100917D01*
X0204102Y0099318D02*
X0249770Y0099318D01*
X0249770Y0097720D02*
X0205150Y0097720D01*
X0206199Y0096121D02*
X0249770Y0096121D01*
X0249770Y0094523D02*
X0207248Y0094523D01*
X0208296Y0092924D02*
X0249770Y0092924D01*
X0249770Y0091326D02*
X0209345Y0091326D01*
X0210394Y0089728D02*
X0249770Y0089728D01*
X0249770Y0088129D02*
X0211442Y0088129D01*
X0212491Y0086531D02*
X0249770Y0086531D01*
X0249770Y0084932D02*
X0213539Y0084932D01*
X0214588Y0083334D02*
X0249770Y0083334D01*
X0249770Y0081735D02*
X0215637Y0081735D01*
X0216685Y0080137D02*
X0249770Y0080137D01*
X0249770Y0078539D02*
X0217734Y0078539D01*
X0220391Y0076940D02*
X0249770Y0076940D01*
X0249770Y0075342D02*
X0221278Y0075342D01*
X0221351Y0073743D02*
X0249770Y0073743D01*
X0249770Y0072145D02*
X0220648Y0072145D01*
X0217570Y0074414D02*
X0186670Y0121514D01*
X0186670Y0187914D01*
X0228631Y0192027D02*
X0249770Y0192027D01*
X0249770Y0190428D02*
X0230554Y0190428D01*
X0231215Y0188830D02*
X0249770Y0188830D01*
X0249770Y0187231D02*
X0231220Y0187231D01*
X0230650Y0185633D02*
X0249770Y0185633D01*
X0249770Y0184035D02*
X0229194Y0184035D01*
X0144570Y0140877D02*
X0142505Y0140877D01*
X0142551Y0139279D02*
X0144570Y0139279D01*
X0144570Y0137680D02*
X0141783Y0137680D01*
X0144570Y0129688D02*
X0114090Y0129688D01*
X0114559Y0128090D02*
X0144570Y0128090D01*
X0144570Y0126491D02*
X0114420Y0126491D01*
X0113617Y0124893D02*
X0144570Y0124893D01*
X0144570Y0104113D02*
X0058518Y0104113D01*
X0089850Y0083334D02*
X0176056Y0083334D01*
X0177654Y0081735D02*
X0090251Y0081735D01*
X0089950Y0080137D02*
X0179253Y0080137D01*
X0180851Y0078539D02*
X0088742Y0078539D01*
X0086470Y0081614D02*
X0079270Y0081614D01*
X0064970Y0067314D01*
X0064970Y0062614D01*
X0090570Y0037014D01*
X0099470Y0037014D01*
X0101670Y0034814D01*
X0101570Y0034814D01*
X0104387Y0032184D02*
X0144606Y0032184D01*
X0146204Y0030586D02*
X0100212Y0030586D01*
X0096670Y0031914D02*
X0089970Y0031914D01*
X0079670Y0027614D02*
X0072270Y0035014D01*
X0072270Y0040614D01*
X0069682Y0043373D02*
X0055670Y0043373D01*
X0055670Y0041775D02*
X0068658Y0041775D01*
X0068489Y0040176D02*
X0055670Y0040176D01*
X0055670Y0038578D02*
X0069020Y0038578D01*
X0069870Y0036980D02*
X0055670Y0036980D01*
X0055797Y0035381D02*
X0069870Y0035381D01*
X0070182Y0033783D02*
X0057395Y0033783D01*
X0058994Y0032184D02*
X0071706Y0032184D01*
X0073304Y0030586D02*
X0060592Y0030586D01*
X0062191Y0028987D02*
X0074902Y0028987D01*
X0076501Y0027389D02*
X0063789Y0027389D01*
X0065970Y0021814D02*
X0053270Y0034514D01*
X0065970Y0021814D02*
X0066770Y0021814D01*
X0070289Y0025791D02*
X0073251Y0025791D01*
X0072019Y0024192D02*
X0071522Y0024192D01*
X0079670Y0027614D02*
X0117070Y0027614D01*
X0163870Y0027614D01*
X0167470Y0027614D01*
X0168970Y0029114D01*
X0165487Y0030586D02*
X0164736Y0030586D01*
X0166334Y0032184D02*
X0166693Y0032184D01*
X0162570Y0031814D02*
X0162170Y0031414D01*
X0148770Y0031414D01*
X0140170Y0040014D01*
X0126070Y0054114D01*
X0110570Y0054114D01*
X0109490Y0057759D02*
X0079677Y0057759D01*
X0078296Y0056161D02*
X0107325Y0056161D01*
X0106789Y0054562D02*
X0076416Y0054562D01*
X0078014Y0052964D02*
X0106954Y0052964D01*
X0107971Y0051365D02*
X0079613Y0051365D01*
X0081211Y0049767D02*
X0127023Y0049767D01*
X0128621Y0048169D02*
X0082809Y0048169D01*
X0084408Y0046570D02*
X0130220Y0046570D01*
X0131818Y0044972D02*
X0086006Y0044972D01*
X0087605Y0043373D02*
X0133417Y0043373D01*
X0135015Y0041775D02*
X0089203Y0041775D01*
X0090802Y0040176D02*
X0136613Y0040176D01*
X0138212Y0038578D02*
X0102463Y0038578D01*
X0104852Y0036980D02*
X0139810Y0036980D01*
X0141409Y0035381D02*
X0105451Y0035381D01*
X0105335Y0033783D02*
X0143007Y0033783D01*
X0145000Y0038578D02*
X0146887Y0038578D01*
X0147570Y0040176D02*
X0143402Y0040176D01*
X0141803Y0041775D02*
X0147570Y0041775D01*
X0147570Y0043373D02*
X0140205Y0043373D01*
X0138606Y0044972D02*
X0147218Y0044972D01*
X0145620Y0046570D02*
X0137008Y0046570D01*
X0135409Y0048169D02*
X0144021Y0048169D01*
X0142423Y0049767D02*
X0133811Y0049767D01*
X0132213Y0051365D02*
X0138871Y0051365D01*
X0137678Y0052964D02*
X0130614Y0052964D01*
X0129016Y0054562D02*
X0137389Y0054562D01*
X0137801Y0056161D02*
X0127400Y0056161D01*
X0125424Y0051365D02*
X0113169Y0051365D01*
X0111650Y0057759D02*
X0139366Y0057759D01*
X0141170Y0054414D02*
X0141270Y0054314D01*
X0149970Y0045614D01*
X0149970Y0036314D01*
X0153676Y0035381D02*
X0162743Y0035381D01*
X0164341Y0036980D02*
X0153751Y0036980D01*
X0153053Y0038578D02*
X0165689Y0038578D01*
X0165983Y0040176D02*
X0152370Y0040176D01*
X0152370Y0041775D02*
X0167183Y0041775D01*
X0169470Y0038714D02*
X0162570Y0031814D01*
X0161870Y0031114D01*
X0151770Y0021814D02*
X0144870Y0014914D01*
X0155250Y0017798D02*
X0158290Y0017798D01*
X0157034Y0019397D02*
X0156505Y0019397D01*
X0165250Y0017798D02*
X0168290Y0017798D01*
X0167034Y0019397D02*
X0166505Y0019397D01*
X0175250Y0017798D02*
X0178290Y0017798D01*
X0177035Y0019397D02*
X0176505Y0019397D01*
X0176522Y0024192D02*
X0177019Y0024192D01*
X0178251Y0025791D02*
X0175289Y0025791D01*
X0185289Y0025791D02*
X0187969Y0025791D01*
X0186809Y0024192D02*
X0186521Y0024192D01*
X0186505Y0019397D02*
X0186829Y0019397D01*
X0188007Y0017798D02*
X0185250Y0017798D01*
X0191569Y0017798D02*
X0191970Y0017798D01*
X0191970Y0019397D02*
X0191569Y0019397D01*
X0191569Y0020995D02*
X0191970Y0020995D01*
X0191970Y0022594D02*
X0191569Y0022594D01*
X0191569Y0024192D02*
X0191970Y0024192D01*
X0191970Y0025791D02*
X0191569Y0025791D01*
X0195571Y0025791D02*
X0198251Y0025791D01*
X0197019Y0024192D02*
X0196731Y0024192D01*
X0196711Y0019397D02*
X0197034Y0019397D01*
X0198290Y0017798D02*
X0195532Y0017798D01*
X0176170Y0046014D02*
X0174070Y0045614D01*
X0157970Y0045614D01*
X0160763Y0048169D02*
X0167068Y0048169D01*
X0165935Y0049767D02*
X0149211Y0049767D01*
X0147613Y0051365D02*
X0165689Y0051365D01*
X0166144Y0052964D02*
X0146014Y0052964D01*
X0144951Y0054562D02*
X0167915Y0054562D01*
X0171026Y0054562D02*
X0180571Y0054562D01*
X0182970Y0051614D02*
X0169970Y0051614D01*
X0169470Y0051114D01*
X0155177Y0048169D02*
X0150809Y0048169D01*
X0152172Y0046570D02*
X0154274Y0046570D01*
X0154189Y0044972D02*
X0152370Y0044972D01*
X0152370Y0043373D02*
X0154863Y0043373D01*
X0185451Y0072145D02*
X0084848Y0072145D01*
X0085760Y0073743D02*
X0184989Y0073743D01*
X0184048Y0075342D02*
X0085851Y0075342D01*
X0085191Y0076940D02*
X0182450Y0076940D01*
X0187639Y0078539D02*
X0211994Y0078539D01*
X0210945Y0080137D02*
X0186041Y0080137D01*
X0184443Y0081735D02*
X0209896Y0081735D01*
X0208848Y0083334D02*
X0182844Y0083334D01*
X0181246Y0084932D02*
X0207799Y0084932D01*
X0206750Y0086531D02*
X0179647Y0086531D01*
X0178049Y0088129D02*
X0205702Y0088129D01*
X0204653Y0089728D02*
X0176450Y0089728D01*
X0174852Y0091326D02*
X0203604Y0091326D01*
X0213043Y0076940D02*
X0191191Y0076940D01*
X0192313Y0075342D02*
X0213862Y0075342D01*
X0213789Y0073743D02*
X0192551Y0073743D01*
X0192088Y0072145D02*
X0214492Y0072145D01*
X0190278Y0070546D02*
X0249770Y0070546D01*
X0084198Y0078539D02*
X0079589Y0078539D01*
X0078949Y0076940D02*
X0077990Y0076940D01*
X0078289Y0075342D02*
X0076392Y0075342D01*
X0077705Y0073743D02*
X0074793Y0073743D01*
X0076107Y0072145D02*
X0073195Y0072145D01*
X0074508Y0070546D02*
X0071596Y0070546D01*
X0069998Y0068948D02*
X0073870Y0068948D01*
X0073870Y0067350D02*
X0068400Y0067350D01*
X0067370Y0065751D02*
X0073870Y0065751D01*
X0073870Y0064153D02*
X0067370Y0064153D01*
X0068424Y0062554D02*
X0073870Y0062554D01*
X0072816Y0060956D02*
X0070022Y0060956D01*
X0071620Y0059357D02*
X0072489Y0059357D01*
X0076270Y0059414D02*
X0076270Y0068914D01*
X0082070Y0074714D01*
X0063078Y0208011D02*
X0060462Y0208011D01*
X0061593Y0209609D02*
X0061946Y0209609D01*
X0062107Y0214405D02*
X0061433Y0214405D01*
X0060076Y0216003D02*
X0063464Y0216003D01*
X0070076Y0216003D02*
X0073464Y0216003D01*
X0072107Y0214405D02*
X0071433Y0214405D01*
X0080076Y0216003D02*
X0083464Y0216003D01*
X0082107Y0214405D02*
X0081433Y0214405D01*
X0053464Y0216003D02*
X0050076Y0216003D01*
X0051433Y0214405D02*
X0052107Y0214405D01*
X0051946Y0209609D02*
X0051593Y0209609D01*
X0050462Y0208011D02*
X0053078Y0208011D01*
D16*
X0066770Y0211814D02*
X0077170Y0201414D01*
X0077170Y0187814D01*
X0082970Y0188214D02*
X0082970Y0205614D01*
X0076770Y0211814D01*
X0086770Y0211814D02*
X0091770Y0206814D01*
X0091770Y0188414D01*
M02*
