G75*
G70*
%OFA0B0*%
%FSLAX25Y25*%
%IPPOS*%
%LPD*%
%AMOC8*
5,1,8,0,0,1.08239X$1,22.5*
%
%ADD10C,0.08200*%
%ADD11C,0.06700*%
%ADD12C,0.06200*%
%ADD13C,0.10100*%
D10*
X0046770Y0021814D03*
X0056770Y0021814D03*
X0066770Y0021814D03*
X0076770Y0021814D03*
X0086770Y0021814D03*
X0096770Y0021814D03*
X0106770Y0021814D03*
X0116770Y0021814D03*
X0131770Y0021814D03*
X0141770Y0021814D03*
X0151770Y0021814D03*
X0161770Y0021814D03*
X0171770Y0021814D03*
X0181770Y0021814D03*
X0191770Y0021814D03*
X0201770Y0021814D03*
X0166770Y0211814D03*
X0156770Y0211814D03*
X0146770Y0211814D03*
X0136770Y0211814D03*
X0126770Y0211814D03*
X0116770Y0211814D03*
X0096770Y0211814D03*
X0086770Y0211814D03*
X0076770Y0211814D03*
X0066770Y0211814D03*
X0056770Y0211814D03*
X0046770Y0211814D03*
D11*
X0186670Y0187914D03*
X0226670Y0187914D03*
X0115870Y0090014D03*
X0107970Y0090014D03*
X0100070Y0090014D03*
X0221170Y0027414D03*
X0231170Y0027414D03*
X0241170Y0027414D03*
D12*
X0110070Y0127666D03*
X0100070Y0127666D03*
D13*
X0091770Y0090014D03*
X0124170Y0090014D03*
M02*
