G75*
G70*
%OFA0B0*%
%FSLAX25Y25*%
%IPPOS*%
%LPD*%
%AMOC8*
5,1,8,0,0,1.08239X$1,22.5*
%
%ADD10R,0.05118X0.05906*%
%ADD11R,0.05906X0.05118*%
%ADD12R,0.02362X0.08661*%
%ADD13C,0.07400*%
%ADD14R,0.02362X0.05906*%
%ADD15R,0.05906X0.02362*%
%ADD16R,0.03000X0.06500*%
%ADD17R,0.08661X0.02362*%
%ADD18R,0.06693X0.02559*%
%ADD19R,0.03937X0.02756*%
%ADD20C,0.05900*%
%ADD21C,0.05400*%
%ADD22R,0.08268X0.05512*%
%ADD23C,0.09300*%
%ADD24R,0.03150X0.03150*%
%ADD25C,0.01600*%
%ADD26C,0.04362*%
%ADD27C,0.01200*%
%ADD28C,0.01000*%
D10*
X0068830Y0050014D03*
X0076310Y0050014D03*
X0068910Y0058214D03*
X0061430Y0058214D03*
X0068930Y0066514D03*
X0076410Y0066514D03*
X0102230Y0066614D03*
X0109710Y0066614D03*
X0109710Y0074814D03*
X0102230Y0074814D03*
X0132630Y0074814D03*
X0140110Y0074814D03*
X0140110Y0066414D03*
X0132630Y0066414D03*
X0126110Y0033814D03*
X0118630Y0033814D03*
X0198030Y0062014D03*
X0205510Y0062014D03*
X0206410Y0072814D03*
X0198930Y0072814D03*
X0223630Y0061714D03*
X0231110Y0061714D03*
X0231860Y0103514D03*
X0224380Y0103514D03*
X0136110Y0151614D03*
X0128630Y0151614D03*
X0119760Y0151614D03*
X0112280Y0151614D03*
X0118730Y0142714D03*
X0126210Y0142714D03*
X0105010Y0143014D03*
X0097530Y0143014D03*
X0127930Y0168314D03*
X0135410Y0168314D03*
X0123510Y0198814D03*
X0116030Y0198814D03*
X0054310Y0135514D03*
X0046830Y0135514D03*
D11*
X0055670Y0150074D03*
X0055670Y0157554D03*
X0073920Y0148104D03*
X0073920Y0140624D03*
X0089570Y0151624D03*
X0089570Y0159104D03*
X0064370Y0188674D03*
X0055770Y0188674D03*
X0055770Y0196154D03*
X0064370Y0196154D03*
X0078970Y0194674D03*
X0087370Y0194674D03*
X0087370Y0202154D03*
X0078970Y0202154D03*
X0095970Y0202154D03*
X0095970Y0194674D03*
X0106770Y0198874D03*
X0106770Y0206354D03*
X0128020Y0189104D03*
X0128020Y0181624D03*
X0241920Y0111854D03*
X0241920Y0104374D03*
X0203970Y0092954D03*
X0195520Y0092904D03*
X0195520Y0085424D03*
X0203970Y0085474D03*
X0158970Y0070354D03*
X0150570Y0070354D03*
X0150570Y0062874D03*
X0158970Y0062874D03*
X0188870Y0039954D03*
X0188870Y0032474D03*
X0178270Y0031574D03*
X0178270Y0039054D03*
X0158670Y0037954D03*
X0158670Y0030474D03*
X0135570Y0031274D03*
X0135570Y0038754D03*
D12*
X0117370Y0168728D03*
X0112370Y0168728D03*
X0107370Y0168728D03*
X0102370Y0168728D03*
X0102370Y0189200D03*
X0107370Y0189200D03*
X0112370Y0189200D03*
X0117370Y0189200D03*
D13*
X0116770Y0211814D03*
X0126770Y0211814D03*
X0136770Y0211814D03*
X0146770Y0211814D03*
X0156770Y0211814D03*
X0166770Y0211814D03*
X0096770Y0211814D03*
X0086770Y0211814D03*
X0076770Y0211814D03*
X0066770Y0211814D03*
X0056770Y0211814D03*
X0046770Y0211814D03*
X0046770Y0021814D03*
X0056770Y0021814D03*
X0066770Y0021814D03*
X0076770Y0021814D03*
X0086770Y0021814D03*
X0096770Y0021814D03*
X0106770Y0021814D03*
X0116770Y0021814D03*
X0131770Y0021814D03*
X0141770Y0021814D03*
X0151770Y0021814D03*
X0161770Y0021814D03*
X0171770Y0021814D03*
X0181770Y0021814D03*
X0191770Y0021814D03*
X0201770Y0021814D03*
D14*
X0086744Y0170196D03*
X0083594Y0170196D03*
X0080445Y0170196D03*
X0077295Y0170196D03*
X0074146Y0170196D03*
X0070996Y0170196D03*
X0070996Y0180432D03*
X0074146Y0180432D03*
X0077295Y0180432D03*
X0080445Y0180432D03*
X0083594Y0180432D03*
X0086744Y0180432D03*
D15*
X0087925Y0175314D03*
X0069815Y0175314D03*
D16*
X0166370Y0081664D03*
X0171370Y0081664D03*
X0176370Y0081664D03*
X0181370Y0081664D03*
X0181370Y0058664D03*
X0176370Y0058664D03*
X0171370Y0058664D03*
X0166370Y0058664D03*
D17*
X0217634Y0080514D03*
X0217634Y0085514D03*
X0217634Y0090514D03*
X0217634Y0095514D03*
X0238106Y0095514D03*
X0238106Y0090514D03*
X0238106Y0085514D03*
X0238106Y0080514D03*
D18*
X0130890Y0058764D03*
X0130890Y0053764D03*
X0130890Y0048764D03*
X0130890Y0043764D03*
X0102150Y0043764D03*
X0102150Y0048764D03*
X0102150Y0053764D03*
X0102150Y0058764D03*
D19*
X0094294Y0062774D03*
X0084846Y0062774D03*
X0084846Y0066514D03*
X0084846Y0070254D03*
X0094294Y0070254D03*
X0093894Y0044354D03*
X0084446Y0044354D03*
X0084446Y0040614D03*
X0084446Y0036874D03*
X0093894Y0036874D03*
X0142046Y0041874D03*
X0151494Y0041874D03*
X0151494Y0045614D03*
X0151494Y0049354D03*
X0142046Y0049354D03*
D20*
X0115870Y0090014D03*
X0107970Y0090014D03*
X0100070Y0090014D03*
X0221170Y0027414D03*
X0231170Y0027414D03*
X0241170Y0027414D03*
X0226670Y0187914D03*
X0186670Y0187914D03*
D21*
X0110070Y0127666D03*
X0100070Y0127666D03*
D22*
X0071783Y0126672D03*
X0071783Y0108956D03*
X0071883Y0093272D03*
X0071883Y0075556D03*
X0036057Y0075556D03*
X0036057Y0093272D03*
X0035957Y0108956D03*
X0035957Y0126672D03*
D23*
X0091770Y0090014D03*
X0124170Y0090014D03*
D24*
X0060818Y0142814D03*
X0054322Y0142814D03*
X0055570Y0166566D03*
X0055570Y0173062D03*
D25*
X0026770Y0001814D02*
X0021770Y0001814D01*
X0021770Y0006814D01*
X0072270Y0040614D02*
X0084446Y0040614D01*
X0084446Y0044354D02*
X0088330Y0044354D01*
X0089170Y0043514D01*
X0089170Y0037914D01*
X0088130Y0036874D01*
X0084446Y0036874D01*
X0082186Y0034614D01*
X0078970Y0034614D01*
X0093894Y0036874D02*
X0097335Y0040314D01*
X0119670Y0040314D01*
X0123120Y0043764D01*
X0130890Y0043764D01*
X0130890Y0048764D02*
X0142036Y0049364D01*
X0142046Y0049354D01*
X0140520Y0053764D02*
X0130890Y0053764D01*
X0124220Y0053764D01*
X0122370Y0049814D01*
X0110970Y0049814D01*
X0107820Y0048764D01*
X0102150Y0048764D01*
X0098304Y0048764D01*
X0093894Y0044354D01*
X0088635Y0049614D01*
X0076710Y0049614D01*
X0076310Y0050014D01*
X0076270Y0050054D01*
X0076270Y0059414D01*
X0075070Y0058214D01*
X0068910Y0058214D01*
X0076270Y0059414D02*
X0076327Y0059357D01*
X0082570Y0058414D02*
X0084846Y0060690D01*
X0084846Y0062774D01*
X0088330Y0062774D01*
X0089770Y0064214D01*
X0089770Y0069414D01*
X0088970Y0070214D01*
X0084886Y0070214D01*
X0084846Y0070254D01*
X0082070Y0074714D02*
X0089835Y0074714D01*
X0094294Y0070254D01*
X0094854Y0070814D01*
X0099054Y0066614D01*
X0102230Y0066614D01*
X0102230Y0074814D01*
X0109710Y0074814D02*
X0109710Y0066614D01*
X0120170Y0066614D01*
X0132356Y0066141D02*
X0132630Y0066414D01*
X0132630Y0060504D01*
X0130890Y0058764D01*
X0130890Y0053764D01*
X0140520Y0053764D02*
X0141170Y0054414D01*
X0147070Y0048814D02*
X0147610Y0049354D01*
X0151494Y0049354D01*
X0153910Y0049354D01*
X0163370Y0050814D01*
X0169470Y0051114D02*
X0169470Y0048754D01*
X0158670Y0037954D01*
X0160130Y0037954D01*
X0168970Y0029114D01*
X0171770Y0025074D02*
X0171770Y0021814D01*
X0171770Y0025074D02*
X0178270Y0031574D01*
X0177930Y0038714D02*
X0169470Y0038714D01*
X0177930Y0038714D02*
X0178270Y0039054D01*
X0176170Y0046014D02*
X0182810Y0046014D01*
X0188870Y0039954D01*
X0188870Y0032474D02*
X0188870Y0028914D01*
X0181770Y0021814D01*
X0161770Y0021814D02*
X0158670Y0024914D01*
X0158670Y0030474D01*
X0149970Y0036314D02*
X0147606Y0036314D01*
X0142046Y0041874D01*
X0138690Y0041874D01*
X0135570Y0038754D01*
X0129250Y0038754D01*
X0126110Y0033814D01*
X0118630Y0033814D02*
X0115630Y0035914D01*
X0111570Y0035914D01*
X0109820Y0043764D02*
X0102150Y0043764D01*
X0109820Y0043764D02*
X0111470Y0045414D01*
X0110220Y0053764D02*
X0102150Y0053764D01*
X0102150Y0058764D02*
X0098304Y0058764D01*
X0094294Y0062774D01*
X0084846Y0066514D02*
X0076410Y0066514D01*
X0068930Y0066514D02*
X0045670Y0066514D01*
X0036057Y0062528D02*
X0036057Y0075556D01*
X0071883Y0075556D01*
X0086470Y0081614D02*
X0097170Y0081614D01*
X0099970Y0084414D01*
X0099970Y0089888D01*
X0100070Y0090014D01*
X0082270Y0097514D02*
X0078028Y0093272D01*
X0071883Y0093272D01*
X0036057Y0093272D01*
X0048328Y0108956D02*
X0056270Y0101014D01*
X0064212Y0108956D01*
X0071783Y0108956D01*
X0071783Y0126672D02*
X0082728Y0126672D01*
X0082770Y0126714D01*
X0071783Y0126672D02*
X0035957Y0126672D01*
X0035957Y0108956D02*
X0048328Y0108956D01*
X0073920Y0140624D02*
X0076310Y0143014D01*
X0097530Y0143014D01*
X0097530Y0130206D01*
X0100070Y0127666D01*
X0105010Y0143014D02*
X0108070Y0143014D01*
X0111870Y0146814D01*
X0115970Y0142714D01*
X0118730Y0142714D01*
X0126210Y0142714D02*
X0126210Y0149194D01*
X0128630Y0151614D01*
X0119760Y0151614D01*
X0119646Y0151617D01*
X0119533Y0151625D01*
X0119420Y0151638D01*
X0119308Y0151657D01*
X0119197Y0151681D01*
X0119087Y0151711D01*
X0118978Y0151745D01*
X0118872Y0151785D01*
X0118767Y0151830D01*
X0118665Y0151880D01*
X0118565Y0151934D01*
X0118468Y0151993D01*
X0118374Y0152057D01*
X0118283Y0152125D01*
X0118195Y0152198D01*
X0118111Y0152274D01*
X0118030Y0152355D01*
X0117954Y0152439D01*
X0117881Y0152527D01*
X0117813Y0152618D01*
X0117749Y0152712D01*
X0117690Y0152809D01*
X0117636Y0152909D01*
X0117586Y0153011D01*
X0117541Y0153116D01*
X0117501Y0153222D01*
X0117467Y0153331D01*
X0117437Y0153441D01*
X0117413Y0153552D01*
X0117394Y0153664D01*
X0117381Y0153777D01*
X0117373Y0153890D01*
X0117370Y0154004D01*
X0117370Y0168728D01*
X0112370Y0168728D02*
X0112280Y0168638D01*
X0112280Y0151614D01*
X0112270Y0151604D01*
X0112270Y0147214D01*
X0111870Y0146814D01*
X0112280Y0151614D02*
X0112270Y0151624D01*
X0089570Y0151624D01*
X0089570Y0159104D02*
X0084920Y0159104D01*
X0073920Y0148104D01*
X0089570Y0159104D02*
X0096960Y0159104D01*
X0096970Y0159114D01*
X0107370Y0168728D02*
X0107370Y0173714D01*
X0111870Y0178214D01*
X0124610Y0178214D01*
X0128020Y0181624D01*
X0128020Y0168404D01*
X0127930Y0168314D01*
X0135410Y0168314D02*
X0135410Y0152314D01*
X0136110Y0151614D01*
X0126210Y0142714D02*
X0126210Y0135674D01*
X0126270Y0129414D01*
X0145370Y0127214D02*
X0176370Y0096214D01*
X0179680Y0092904D01*
X0195520Y0092904D01*
X0195570Y0092954D01*
X0203970Y0092954D01*
X0205110Y0091814D01*
X0210970Y0091814D01*
X0212270Y0090514D01*
X0217634Y0090514D01*
X0222470Y0090514D01*
X0232370Y0080614D01*
X0238006Y0080614D01*
X0238106Y0080514D01*
X0238106Y0085514D02*
X0238106Y0090514D01*
X0232670Y0090514D01*
X0230170Y0093014D01*
X0230170Y0101824D01*
X0231860Y0103514D01*
X0224380Y0103514D02*
X0224370Y0103524D01*
X0224370Y0112414D01*
X0222570Y0118414D02*
X0221034Y0118414D01*
X0217634Y0115014D01*
X0217634Y0178878D01*
X0226670Y0187914D01*
X0256770Y0226814D02*
X0256770Y0231814D01*
X0251770Y0231814D01*
X0156770Y0211814D02*
X0156770Y0152714D01*
X0151870Y0147814D01*
X0119770Y0181514D02*
X0114570Y0181514D01*
X0112370Y0183714D01*
X0112370Y0189200D01*
X0121870Y0187214D02*
X0121870Y0183614D01*
X0119770Y0181514D01*
X0121870Y0187214D02*
X0123770Y0189114D01*
X0128010Y0189114D01*
X0128020Y0189104D01*
X0131870Y0192954D01*
X0131870Y0196814D01*
X0126710Y0202014D02*
X0137970Y0202014D01*
X0139570Y0200414D01*
X0139570Y0198014D01*
X0142170Y0204814D02*
X0146770Y0209414D01*
X0146770Y0211814D01*
X0142170Y0204814D02*
X0118370Y0204814D01*
X0116030Y0202474D01*
X0116030Y0198814D01*
X0123510Y0198814D02*
X0126710Y0202014D01*
X0106770Y0206354D02*
X0106770Y0214014D01*
X0078970Y0194674D02*
X0078970Y0189614D01*
X0077170Y0187814D01*
X0077170Y0181557D01*
X0077295Y0180432D01*
X0070996Y0180432D02*
X0069815Y0180251D01*
X0069815Y0175314D01*
X0070996Y0180432D02*
X0070970Y0181458D01*
X0070970Y0186214D01*
X0068510Y0188674D01*
X0064370Y0188674D01*
X0055770Y0188674D01*
X0055770Y0196154D02*
X0055770Y0201914D01*
X0055770Y0196154D02*
X0064370Y0196154D01*
X0065810Y0196154D02*
X0071170Y0201514D01*
X0071170Y0192814D01*
X0071170Y0200557D02*
X0071170Y0201514D01*
X0026770Y0231814D02*
X0021770Y0231814D01*
X0021770Y0226814D01*
X0176370Y0096214D02*
X0176370Y0081664D01*
X0176370Y0072014D01*
X0172070Y0067714D01*
X0166370Y0062014D01*
X0166370Y0058664D01*
X0163180Y0058664D01*
X0158970Y0062874D01*
X0150570Y0062874D01*
X0140110Y0066414D02*
X0140110Y0074814D01*
X0143110Y0077814D01*
X0150570Y0077814D01*
X0150570Y0070354D01*
X0158970Y0070354D01*
X0158970Y0078214D01*
X0166370Y0081664D02*
X0166370Y0090014D01*
X0171370Y0081664D02*
X0171370Y0073114D01*
X0177870Y0067614D02*
X0171370Y0063014D01*
X0171370Y0058664D01*
X0166370Y0058664D02*
X0166220Y0058514D01*
X0176370Y0058664D02*
X0176170Y0046014D01*
X0182970Y0051614D02*
X0181370Y0053214D01*
X0181370Y0058664D01*
X0177870Y0067614D02*
X0192430Y0067614D01*
X0198030Y0062014D01*
X0205510Y0062014D02*
X0205510Y0033074D01*
X0208770Y0029814D01*
X0208770Y0019214D01*
X0204770Y0015214D01*
X0157570Y0015214D01*
X0148370Y0015214D01*
X0141770Y0021814D01*
X0142370Y0031614D02*
X0136110Y0031814D01*
X0135570Y0031274D01*
X0147170Y0043114D02*
X0148410Y0041874D01*
X0151494Y0041874D01*
X0147170Y0043114D02*
X0147170Y0048714D01*
X0147070Y0048814D01*
X0151494Y0045614D02*
X0157970Y0045614D01*
X0149970Y0036314D02*
X0149881Y0036225D01*
X0116770Y0021814D02*
X0101670Y0034814D01*
X0096670Y0031914D02*
X0106770Y0022114D01*
X0106770Y0021814D01*
X0076770Y0021814D02*
X0036057Y0062528D01*
X0061430Y0058214D02*
X0061570Y0058214D01*
X0061570Y0050014D01*
X0068830Y0050014D01*
X0110220Y0053764D02*
X0110570Y0054114D01*
X0132630Y0066414D02*
X0132630Y0074814D01*
X0132630Y0076874D01*
X0136570Y0080814D01*
X0141270Y0080814D01*
X0146970Y0086514D01*
X0146970Y0090014D01*
X0181370Y0081664D02*
X0187770Y0081664D01*
X0187770Y0081714D01*
X0191810Y0081714D01*
X0195520Y0085424D01*
X0203920Y0085424D01*
X0203970Y0085474D01*
X0204010Y0085514D01*
X0217634Y0085514D01*
X0217634Y0080514D02*
X0217734Y0080414D01*
X0217570Y0074414D01*
X0212530Y0072814D02*
X0206410Y0072814D01*
X0212530Y0072814D02*
X0223630Y0061714D01*
X0231110Y0061714D02*
X0231110Y0027474D01*
X0231170Y0027414D01*
X0241170Y0027414D02*
X0247570Y0033814D01*
X0247570Y0094014D01*
X0246070Y0095514D01*
X0238106Y0095514D01*
X0241920Y0099328D01*
X0241920Y0104374D01*
X0241920Y0111854D02*
X0235360Y0118414D01*
X0222570Y0118414D01*
X0217634Y0115014D02*
X0217634Y0095514D01*
X0197730Y0074014D02*
X0188770Y0074014D01*
X0197730Y0074014D02*
X0198930Y0072814D01*
X0256770Y0006814D02*
X0256770Y0001814D01*
X0251770Y0001814D01*
D26*
X0182970Y0051614D03*
X0176170Y0046014D03*
X0169470Y0051114D03*
X0163370Y0050814D03*
X0157970Y0045614D03*
X0149970Y0036314D03*
X0142370Y0031614D03*
X0168970Y0029114D03*
X0169470Y0038714D03*
X0141170Y0054414D03*
X0120170Y0066614D03*
X0110570Y0054114D03*
X0111470Y0045414D03*
X0111570Y0035914D03*
X0101670Y0034814D03*
X0096670Y0031914D03*
X0078970Y0034614D03*
X0072270Y0040614D03*
X0061570Y0050014D03*
X0076270Y0059414D03*
X0082570Y0058414D03*
X0082070Y0074714D03*
X0086470Y0081614D03*
X0082270Y0097514D03*
X0056270Y0101014D03*
X0082770Y0126714D03*
X0061970Y0136014D03*
X0096970Y0159114D03*
X0094370Y0168014D03*
X0091770Y0188414D03*
X0082970Y0188214D03*
X0077170Y0187814D03*
X0071170Y0201514D03*
X0055770Y0201914D03*
X0106770Y0214014D03*
X0131870Y0196814D03*
X0139570Y0198014D03*
X0151870Y0147814D03*
X0126270Y0129414D03*
X0145370Y0127214D03*
X0146970Y0090014D03*
X0150570Y0077814D03*
X0158970Y0078214D03*
X0171370Y0073114D03*
X0187770Y0081714D03*
X0188770Y0074014D03*
X0166370Y0090014D03*
X0217570Y0074414D03*
X0224370Y0112414D03*
X0045670Y0066514D03*
D27*
X0073920Y0148104D02*
X0073920Y0150464D01*
X0065570Y0158814D01*
X0065570Y0171069D01*
X0069815Y0175314D01*
X0074146Y0180432D02*
X0074146Y0185239D01*
X0073170Y0186214D01*
X0073170Y0190814D01*
X0071170Y0192814D01*
X0080445Y0185489D02*
X0082970Y0188214D01*
X0087370Y0193414D01*
X0087370Y0194674D01*
X0087770Y0187614D02*
X0091770Y0188414D01*
X0095970Y0192614D01*
X0095970Y0194674D01*
X0095970Y0202154D02*
X0087370Y0202154D01*
X0078970Y0202154D01*
X0078330Y0201514D01*
X0071170Y0201514D01*
X0087770Y0187614D02*
X0083594Y0183439D01*
X0083594Y0180432D01*
X0080445Y0180432D02*
X0080445Y0185489D01*
X0077295Y0170196D02*
X0077295Y0166729D01*
X0084920Y0159104D01*
X0094370Y0168014D02*
X0092188Y0170196D01*
X0086744Y0170196D01*
X0107370Y0189200D02*
X0107370Y0198274D01*
X0106770Y0198874D01*
X0106830Y0198814D01*
X0116030Y0198814D01*
D28*
X0061870Y0170014D02*
X0061870Y0143866D01*
X0060818Y0142814D01*
X0061970Y0141662D01*
X0061970Y0136014D01*
X0054322Y0135526D02*
X0054322Y0142814D01*
X0054322Y0135526D02*
X0054310Y0135514D01*
X0046830Y0135514D02*
X0035070Y0135514D01*
X0029570Y0130014D01*
X0029570Y0084914D01*
X0029570Y0027414D01*
X0040670Y0016314D01*
X0072370Y0016314D01*
X0081270Y0016314D01*
X0086770Y0021814D01*
X0088370Y0013414D02*
X0096770Y0021814D01*
X0088370Y0013414D02*
X0040970Y0013414D01*
X0027570Y0026814D01*
X0027570Y0137014D01*
X0040570Y0150014D01*
X0055610Y0150014D01*
X0055670Y0150074D01*
X0055670Y0157554D02*
X0055570Y0157654D01*
X0055570Y0166566D01*
X0061870Y0170014D02*
X0058822Y0173062D01*
X0055570Y0173062D01*
M02*
