%
M48
M72
T01C0.0236
T02C0.0300
T03C0.0350
T04C0.0400
T05C0.0620
%
T01
X6157Y5001
X7227Y4061
X7897Y3461
X9667Y3191
X10167Y3481
X11157Y3591
X11147Y4541
X11057Y5411
X12017Y6661
X14117Y5441
X15797Y4561
X16337Y5081
X16947Y5111
X17617Y4601
X18297Y5161
X16947Y3871
X16897Y2911
X14997Y3631
X14237Y3161
X17137Y7311
X15897Y7821
X15057Y7781
X14697Y9001
X16637Y9001
X18777Y8171
X18877Y7401
X21757Y7441
X22437Y11241
X15187Y14781
X12627Y12941
X14537Y12721
X9697Y15911
X9437Y16801
X9177Y18841
X8297Y18821
X7717Y18781
X7117Y20151
X10677Y21401
X13187Y19681
X13957Y19801
X8277Y12671
X5627Y10101
X8227Y9751
X8647Y8161
X8207Y7471
X8257Y5841
X7627Y5941
X4567Y6651
T02
X10007Y12767
X11007Y12767
T03
X10797Y9001
X11587Y9001
X10007Y9001
X22117Y2741
X23117Y2741
X24117Y2741
X22667Y18791
X18667Y18791
T04
X4677Y2181
X5677Y2181
X6677Y2181
X7677Y2181
X8677Y2181
X9677Y2181
X10677Y2181
X11677Y2181
X13177Y2181
X14177Y2181
X15177Y2181
X16177Y2181
X17177Y2181
X18177Y2181
X19177Y2181
X20177Y2181
X16677Y21181
X15677Y21181
X14677Y21181
X13677Y21181
X12677Y21181
X11677Y21181
X9677Y21181
X8677Y21181
X7677Y21181
X6677Y21181
X5677Y21181
X4677Y21181
T05
X9177Y9001
X12417Y9001
M30
