G75*
G70*
%OFA0B0*%
%FSLAX25Y25*%
%IPPOS*%
%LPD*%
%AMOC8*
5,1,8,0,0,1.08239X$1,22.5*
%
%ADD10C,0.00800*%
%ADD11C,0.01000*%
%ADD12C,0.01442*%
%ADD13C,0.00200*%
%ADD14C,0.00600*%
%ADD15C,0.02800*%
%ADD16C,0.02362*%
%ADD17C,0.00584*%
%ADD18C,0.00500*%
D10*
X0044667Y0008514D02*
X0044667Y0010616D01*
X0045367Y0011317D01*
X0046769Y0011317D01*
X0047469Y0010616D01*
X0047469Y0008514D01*
X0047469Y0009915D02*
X0048870Y0011317D01*
X0048870Y0013118D02*
X0044667Y0015920D01*
X0044667Y0013118D02*
X0048870Y0015920D01*
X0054667Y0015920D02*
X0058870Y0013118D01*
X0058870Y0015920D02*
X0054667Y0013118D01*
X0054667Y0011317D02*
X0054667Y0008514D01*
X0054667Y0009915D02*
X0058870Y0009915D01*
X0064667Y0010616D02*
X0064667Y0008514D01*
X0068870Y0008514D01*
X0068870Y0010616D01*
X0068170Y0011317D01*
X0065367Y0011317D01*
X0064667Y0010616D01*
X0065367Y0013118D02*
X0064667Y0013818D01*
X0064667Y0015219D01*
X0065367Y0015920D01*
X0066068Y0015920D01*
X0068870Y0013118D01*
X0068870Y0015920D01*
X0074667Y0015219D02*
X0074667Y0013818D01*
X0075367Y0013118D01*
X0075367Y0011317D02*
X0074667Y0010616D01*
X0074667Y0008514D01*
X0078870Y0008514D01*
X0078870Y0010616D01*
X0078170Y0011317D01*
X0075367Y0011317D01*
X0078170Y0013118D02*
X0078870Y0013818D01*
X0078870Y0015219D01*
X0078170Y0015920D01*
X0077469Y0015920D01*
X0076769Y0015219D01*
X0076769Y0014519D01*
X0076769Y0015219D02*
X0076068Y0015920D01*
X0075367Y0015920D01*
X0074667Y0015219D01*
X0084667Y0015219D02*
X0086769Y0013118D01*
X0086769Y0015920D01*
X0088870Y0015219D02*
X0084667Y0015219D01*
X0085367Y0011317D02*
X0084667Y0010616D01*
X0084667Y0008514D01*
X0088870Y0008514D01*
X0088870Y0010616D01*
X0088170Y0011317D01*
X0085367Y0011317D01*
X0094667Y0010616D02*
X0094667Y0008514D01*
X0098870Y0008514D01*
X0098870Y0010616D01*
X0098170Y0011317D01*
X0095367Y0011317D01*
X0094667Y0010616D01*
X0094667Y0013118D02*
X0096769Y0013118D01*
X0096068Y0014519D01*
X0096068Y0015219D01*
X0096769Y0015920D01*
X0098170Y0015920D01*
X0098870Y0015219D01*
X0098870Y0013818D01*
X0098170Y0013118D01*
X0094667Y0013118D02*
X0094667Y0015920D01*
X0104667Y0015920D02*
X0105367Y0014519D01*
X0106769Y0013118D01*
X0106769Y0015219D01*
X0107469Y0015920D01*
X0108170Y0015920D01*
X0108870Y0015219D01*
X0108870Y0013818D01*
X0108170Y0013118D01*
X0106769Y0013118D01*
X0108170Y0011317D02*
X0105367Y0011317D01*
X0104667Y0010616D01*
X0104667Y0008514D01*
X0108870Y0008514D01*
X0108870Y0010616D01*
X0108170Y0011317D01*
X0114667Y0010616D02*
X0114667Y0008514D01*
X0118870Y0008514D01*
X0118870Y0010616D01*
X0118170Y0011317D01*
X0115367Y0011317D01*
X0114667Y0010616D01*
X0114667Y0013118D02*
X0114667Y0015920D01*
X0115367Y0015920D01*
X0118170Y0013118D01*
X0118870Y0013118D01*
X0122167Y0015103D02*
X0122867Y0014403D01*
X0125670Y0014403D01*
X0126370Y0015103D01*
X0126370Y0016504D01*
X0125670Y0017205D01*
X0126370Y0019006D02*
X0123568Y0021809D01*
X0122867Y0021809D01*
X0122167Y0021108D01*
X0122167Y0019707D01*
X0122867Y0019006D01*
X0122867Y0017205D02*
X0122167Y0016504D01*
X0122167Y0015103D01*
X0126370Y0019006D02*
X0126370Y0021809D01*
X0125670Y0023610D02*
X0122867Y0023610D01*
X0122167Y0024310D01*
X0122167Y0025711D01*
X0122867Y0026412D01*
X0125670Y0023610D01*
X0126370Y0024310D01*
X0126370Y0025711D01*
X0125670Y0026412D01*
X0122867Y0026412D01*
X0115168Y0028414D02*
X0112366Y0028414D01*
X0113767Y0028414D02*
X0113767Y0032618D01*
X0112366Y0031217D01*
X0110565Y0031217D02*
X0110565Y0031917D01*
X0109864Y0032618D01*
X0108463Y0032618D01*
X0107762Y0031917D01*
X0105961Y0031917D02*
X0105260Y0032618D01*
X0103859Y0032618D01*
X0103159Y0031917D01*
X0103159Y0029115D01*
X0103859Y0028414D01*
X0105260Y0028414D01*
X0105961Y0029115D01*
X0107762Y0028414D02*
X0110565Y0031217D01*
X0110565Y0028414D02*
X0107762Y0028414D01*
X0129667Y0015219D02*
X0130367Y0015920D01*
X0131068Y0015920D01*
X0131769Y0015219D01*
X0131769Y0013818D01*
X0131068Y0013118D01*
X0130367Y0013118D01*
X0129667Y0013818D01*
X0129667Y0015219D01*
X0131769Y0015219D02*
X0132469Y0015920D01*
X0133170Y0015920D01*
X0133870Y0015219D01*
X0133870Y0013818D01*
X0133170Y0013118D01*
X0132469Y0013118D01*
X0131769Y0013818D01*
X0133170Y0011317D02*
X0130367Y0011317D01*
X0129667Y0010616D01*
X0129667Y0008514D01*
X0133870Y0008514D01*
X0133870Y0010616D01*
X0133170Y0011317D01*
X0139667Y0010616D02*
X0139667Y0008514D01*
X0143870Y0008514D01*
X0143870Y0010616D01*
X0143170Y0011317D01*
X0140367Y0011317D01*
X0139667Y0010616D01*
X0140367Y0013118D02*
X0141068Y0013118D01*
X0141769Y0013818D01*
X0141769Y0015920D01*
X0143170Y0015920D02*
X0140367Y0015920D01*
X0139667Y0015219D01*
X0139667Y0013818D01*
X0140367Y0013118D01*
X0143170Y0013118D02*
X0143870Y0013818D01*
X0143870Y0015219D01*
X0143170Y0015920D01*
X0150168Y0016310D02*
X0150619Y0016760D01*
X0152420Y0014959D01*
X0152870Y0015409D01*
X0152870Y0016310D01*
X0152420Y0016760D01*
X0150619Y0016760D01*
X0150168Y0016310D02*
X0150168Y0015409D01*
X0150619Y0014959D01*
X0152420Y0014959D01*
X0152870Y0013538D02*
X0152870Y0011737D01*
X0152870Y0012637D02*
X0150168Y0012637D01*
X0151069Y0011737D01*
X0150619Y0010315D02*
X0150168Y0009865D01*
X0150168Y0008514D01*
X0152870Y0008514D01*
X0152870Y0009865D01*
X0152420Y0010315D01*
X0150619Y0010315D01*
X0160168Y0009865D02*
X0160168Y0008514D01*
X0162870Y0008514D01*
X0162870Y0009865D01*
X0162420Y0010315D01*
X0160619Y0010315D01*
X0160168Y0009865D01*
X0161069Y0011737D02*
X0160168Y0012637D01*
X0162870Y0012637D01*
X0162870Y0011737D02*
X0162870Y0013538D01*
X0162870Y0014959D02*
X0162870Y0016760D01*
X0162870Y0015859D02*
X0160168Y0015859D01*
X0161069Y0014959D01*
X0170168Y0015409D02*
X0170619Y0014959D01*
X0170168Y0015409D02*
X0170168Y0016310D01*
X0170619Y0016760D01*
X0171069Y0016760D01*
X0172870Y0014959D01*
X0172870Y0016760D01*
X0172870Y0013538D02*
X0172870Y0011737D01*
X0172870Y0012637D02*
X0170168Y0012637D01*
X0171069Y0011737D01*
X0170619Y0010315D02*
X0170168Y0009865D01*
X0170168Y0008514D01*
X0172870Y0008514D01*
X0172870Y0009865D01*
X0172420Y0010315D01*
X0170619Y0010315D01*
X0180168Y0009865D02*
X0180168Y0008514D01*
X0182870Y0008514D01*
X0182870Y0009865D01*
X0182420Y0010315D01*
X0180619Y0010315D01*
X0180168Y0009865D01*
X0181069Y0011737D02*
X0180168Y0012637D01*
X0182870Y0012637D01*
X0182870Y0011737D02*
X0182870Y0013538D01*
X0182420Y0014959D02*
X0182870Y0015409D01*
X0182870Y0016310D01*
X0182420Y0016760D01*
X0181970Y0016760D01*
X0181519Y0016310D01*
X0181519Y0015859D01*
X0181519Y0016310D02*
X0181069Y0016760D01*
X0180619Y0016760D01*
X0180168Y0016310D01*
X0180168Y0015409D01*
X0180619Y0014959D01*
X0190168Y0014959D02*
X0190168Y0016310D01*
X0190619Y0016760D01*
X0192420Y0016760D01*
X0192870Y0016310D01*
X0192870Y0014959D01*
X0190168Y0014959D01*
X0190168Y0013538D02*
X0192870Y0013538D01*
X0190168Y0011737D01*
X0192870Y0011737D01*
X0192420Y0010315D02*
X0191519Y0010315D01*
X0191519Y0009415D01*
X0190619Y0010315D02*
X0190168Y0009865D01*
X0190168Y0008964D01*
X0190619Y0008514D01*
X0192420Y0008514D01*
X0192870Y0008964D01*
X0192870Y0009865D01*
X0192420Y0010315D01*
X0197379Y0012414D02*
X0197379Y0014215D01*
X0198280Y0015116D01*
X0199180Y0014215D01*
X0199180Y0012414D01*
X0199180Y0013765D02*
X0197379Y0013765D01*
X0200602Y0013315D02*
X0201952Y0013315D01*
X0202403Y0013765D01*
X0202403Y0014666D01*
X0201952Y0015116D01*
X0200602Y0015116D01*
X0200602Y0012414D01*
X0201502Y0013315D02*
X0202403Y0012414D01*
X0203824Y0012414D02*
X0205625Y0012414D01*
X0207046Y0012414D02*
X0207046Y0015116D01*
X0208848Y0015116D01*
X0207947Y0013765D02*
X0207046Y0013765D01*
X0205625Y0015116D02*
X0203824Y0015116D01*
X0203824Y0012414D01*
X0203824Y0013765D02*
X0204724Y0013765D01*
X0227770Y0014015D02*
X0229872Y0014015D01*
X0230572Y0014716D01*
X0230572Y0016117D01*
X0229872Y0016818D01*
X0227770Y0016818D01*
X0227770Y0012614D01*
X0229171Y0014015D02*
X0230572Y0012614D01*
X0232374Y0012614D02*
X0232374Y0013315D01*
X0235176Y0016117D01*
X0235176Y0016818D01*
X0232374Y0016818D01*
X0205470Y0031214D02*
X0201267Y0031214D01*
X0201267Y0033316D01*
X0201967Y0034017D01*
X0203369Y0034017D01*
X0204069Y0033316D01*
X0204069Y0031214D01*
X0204069Y0032615D02*
X0205470Y0034017D01*
X0204770Y0035818D02*
X0205470Y0036518D01*
X0205470Y0037919D01*
X0204770Y0038620D01*
X0201967Y0038620D01*
X0201267Y0037919D01*
X0201267Y0036518D01*
X0201967Y0035818D01*
X0202668Y0035818D01*
X0203369Y0036518D01*
X0203369Y0038620D01*
X0198670Y0038620D02*
X0198670Y0035818D01*
X0198670Y0037219D02*
X0194467Y0037219D01*
X0195868Y0035818D01*
X0196569Y0034017D02*
X0197269Y0033316D01*
X0197269Y0031214D01*
X0197269Y0032615D02*
X0198670Y0034017D01*
X0196569Y0034017D02*
X0195167Y0034017D01*
X0194467Y0033316D01*
X0194467Y0031214D01*
X0198670Y0031214D01*
X0197970Y0040421D02*
X0195167Y0040421D01*
X0194467Y0041122D01*
X0194467Y0042523D01*
X0195167Y0043224D01*
X0197970Y0040421D01*
X0198670Y0041122D01*
X0198670Y0042523D01*
X0197970Y0043224D01*
X0195167Y0043224D01*
X0195259Y0052414D02*
X0195259Y0056618D01*
X0197360Y0056618D01*
X0198061Y0055917D01*
X0198061Y0054516D01*
X0197360Y0053815D01*
X0195259Y0053815D01*
X0196660Y0053815D02*
X0198061Y0052414D01*
X0199862Y0052414D02*
X0202665Y0052414D01*
X0201263Y0052414D02*
X0201263Y0056618D01*
X0199862Y0055217D01*
X0204466Y0055917D02*
X0205166Y0056618D01*
X0206567Y0056618D01*
X0207268Y0055917D01*
X0207268Y0055217D01*
X0206567Y0054516D01*
X0207268Y0053815D01*
X0207268Y0053115D01*
X0206567Y0052414D01*
X0205166Y0052414D01*
X0204466Y0053115D01*
X0205867Y0054516D02*
X0206567Y0054516D01*
X0222667Y0071861D02*
X0224068Y0071861D01*
X0223367Y0071861D02*
X0223367Y0076065D01*
X0222667Y0076065D02*
X0224068Y0076065D01*
X0225736Y0075364D02*
X0225736Y0072561D01*
X0226436Y0071861D01*
X0227837Y0071861D01*
X0228538Y0072561D01*
X0230339Y0073963D02*
X0232441Y0076065D01*
X0232441Y0071861D01*
X0233142Y0073963D02*
X0230339Y0073963D01*
X0228538Y0075364D02*
X0227837Y0076065D01*
X0226436Y0076065D01*
X0225736Y0075364D01*
X0236270Y0064518D02*
X0238372Y0064518D01*
X0239072Y0063817D01*
X0239072Y0062416D01*
X0238372Y0061715D01*
X0236270Y0061715D01*
X0236270Y0060314D02*
X0236270Y0064518D01*
X0237671Y0061715D02*
X0239072Y0060314D01*
X0240874Y0060314D02*
X0243676Y0060314D01*
X0242275Y0060314D02*
X0242275Y0064518D01*
X0240874Y0063117D01*
X0245477Y0062416D02*
X0248280Y0062416D01*
X0247579Y0060314D02*
X0247579Y0064518D01*
X0245477Y0062416D01*
X0208680Y0077214D02*
X0205877Y0077214D01*
X0208680Y0080017D01*
X0208680Y0080717D01*
X0207979Y0081418D01*
X0206578Y0081418D01*
X0205877Y0080717D01*
X0202675Y0081418D02*
X0202675Y0077214D01*
X0201274Y0077214D02*
X0204076Y0077214D01*
X0201274Y0080017D02*
X0202675Y0081418D01*
X0199472Y0080717D02*
X0198772Y0081418D01*
X0197370Y0081418D01*
X0196670Y0080717D01*
X0196670Y0077915D01*
X0197370Y0077214D01*
X0198772Y0077214D01*
X0199472Y0077915D01*
X0181718Y0087415D02*
X0181017Y0086714D01*
X0179616Y0086714D01*
X0178916Y0087415D01*
X0177115Y0087415D02*
X0176414Y0086714D01*
X0175013Y0086714D01*
X0174312Y0087415D01*
X0174312Y0090217D01*
X0175013Y0090918D01*
X0176414Y0090918D01*
X0177115Y0090217D01*
X0178916Y0090217D02*
X0179616Y0090918D01*
X0181017Y0090918D01*
X0181718Y0090217D01*
X0181718Y0089517D01*
X0181017Y0088816D01*
X0181718Y0088115D01*
X0181718Y0087415D01*
X0181017Y0088816D02*
X0180317Y0088816D01*
X0172644Y0090918D02*
X0171243Y0090918D01*
X0171944Y0090918D02*
X0171944Y0086714D01*
X0172644Y0086714D02*
X0171243Y0086714D01*
X0156580Y0085117D02*
X0156580Y0084417D01*
X0155879Y0083716D01*
X0156580Y0083015D01*
X0156580Y0082315D01*
X0155879Y0081614D01*
X0154478Y0081614D01*
X0153777Y0082315D01*
X0151976Y0081614D02*
X0149174Y0081614D01*
X0150575Y0081614D02*
X0150575Y0085818D01*
X0149174Y0084417D01*
X0147372Y0085117D02*
X0146672Y0085818D01*
X0145270Y0085818D01*
X0144570Y0085117D01*
X0144570Y0082315D01*
X0145270Y0081614D01*
X0146672Y0081614D01*
X0147372Y0082315D01*
X0142380Y0081916D02*
X0139577Y0081916D01*
X0141679Y0084018D01*
X0141679Y0079814D01*
X0137776Y0079814D02*
X0134974Y0079814D01*
X0136375Y0079814D02*
X0136375Y0084018D01*
X0134974Y0082617D01*
X0133172Y0083317D02*
X0132472Y0084018D01*
X0131070Y0084018D01*
X0130370Y0083317D01*
X0130370Y0080515D01*
X0131070Y0079814D01*
X0132472Y0079814D01*
X0133172Y0080515D01*
X0126980Y0078517D02*
X0126980Y0075715D01*
X0126279Y0075014D01*
X0124878Y0075014D01*
X0124177Y0075715D01*
X0124878Y0077116D02*
X0126980Y0077116D01*
X0126980Y0078517D02*
X0126279Y0079218D01*
X0124878Y0079218D01*
X0124177Y0078517D01*
X0124177Y0077817D01*
X0124878Y0077116D01*
X0122376Y0075014D02*
X0119574Y0075014D01*
X0120975Y0075014D02*
X0120975Y0079218D01*
X0119574Y0077817D01*
X0117772Y0078517D02*
X0117072Y0079218D01*
X0115670Y0079218D01*
X0114970Y0078517D01*
X0114970Y0075715D01*
X0115670Y0075014D01*
X0117072Y0075014D01*
X0117772Y0075715D01*
X0117072Y0073418D02*
X0115670Y0073418D01*
X0114970Y0072717D01*
X0114970Y0069915D01*
X0115670Y0069214D01*
X0117072Y0069214D01*
X0117772Y0069915D01*
X0119574Y0069214D02*
X0122376Y0069214D01*
X0120975Y0069214D02*
X0120975Y0073418D01*
X0119574Y0072017D01*
X0117772Y0072717D02*
X0117072Y0073418D01*
X0124177Y0072717D02*
X0124177Y0072017D01*
X0124878Y0071316D01*
X0126279Y0071316D01*
X0126980Y0070615D01*
X0126980Y0069915D01*
X0126279Y0069214D01*
X0124878Y0069214D01*
X0124177Y0069915D01*
X0124177Y0070615D01*
X0124878Y0071316D01*
X0126279Y0071316D02*
X0126980Y0072017D01*
X0126980Y0072717D01*
X0126279Y0073418D01*
X0124878Y0073418D01*
X0124177Y0072717D01*
X0121695Y0063068D02*
X0118893Y0063068D01*
X0118893Y0060966D01*
X0120294Y0061667D01*
X0120994Y0061667D01*
X0121695Y0060966D01*
X0121695Y0059565D01*
X0120994Y0058864D01*
X0119593Y0058864D01*
X0118893Y0059565D01*
X0117091Y0059565D02*
X0116391Y0058864D01*
X0114989Y0058864D01*
X0114289Y0059565D01*
X0114289Y0062367D01*
X0114989Y0063068D01*
X0116391Y0063068D01*
X0117091Y0062367D01*
X0112621Y0063068D02*
X0111220Y0063068D01*
X0111920Y0063068D02*
X0111920Y0058864D01*
X0111220Y0058864D02*
X0112621Y0058864D01*
X0095608Y0057295D02*
X0095608Y0056594D01*
X0092806Y0053792D01*
X0092806Y0053091D01*
X0093908Y0051795D02*
X0092507Y0051094D01*
X0091106Y0049693D01*
X0093207Y0049693D01*
X0093908Y0048993D01*
X0093908Y0048292D01*
X0093207Y0047591D01*
X0091806Y0047591D01*
X0091106Y0048292D01*
X0091106Y0049693D01*
X0089304Y0048292D02*
X0088604Y0047591D01*
X0087202Y0047591D01*
X0086502Y0048292D01*
X0086502Y0051094D01*
X0087202Y0051795D01*
X0088604Y0051795D01*
X0089304Y0051094D01*
X0088902Y0053091D02*
X0090304Y0053091D01*
X0091004Y0053792D01*
X0088902Y0053091D02*
X0088202Y0053792D01*
X0088202Y0056594D01*
X0088902Y0057295D01*
X0090304Y0057295D01*
X0091004Y0056594D01*
X0092806Y0057295D02*
X0095608Y0057295D01*
X0086534Y0057295D02*
X0085133Y0057295D01*
X0085833Y0057295D02*
X0085833Y0053091D01*
X0085133Y0053091D02*
X0086534Y0053091D01*
X0084834Y0051795D02*
X0083433Y0051795D01*
X0084133Y0051795D02*
X0084133Y0047591D01*
X0083433Y0047591D02*
X0084834Y0047591D01*
X0067914Y0045419D02*
X0066180Y0044551D01*
X0064445Y0042816D01*
X0067047Y0042816D01*
X0067914Y0041949D01*
X0067914Y0041081D01*
X0067047Y0040214D01*
X0065312Y0040214D01*
X0064445Y0041081D01*
X0064445Y0042816D01*
X0062390Y0040214D02*
X0058920Y0040214D01*
X0060655Y0040214D02*
X0060655Y0045419D01*
X0058920Y0043683D01*
X0056865Y0044551D02*
X0055998Y0045419D01*
X0054263Y0045419D01*
X0053396Y0044551D01*
X0053396Y0041081D01*
X0054263Y0040214D01*
X0055998Y0040214D01*
X0056865Y0041081D01*
X0052845Y0055414D02*
X0052845Y0056281D01*
X0056314Y0059751D01*
X0056314Y0060619D01*
X0052845Y0060619D01*
X0049055Y0060619D02*
X0049055Y0055414D01*
X0047320Y0055414D02*
X0050790Y0055414D01*
X0047320Y0058883D02*
X0049055Y0060619D01*
X0045265Y0059751D02*
X0044398Y0060619D01*
X0042663Y0060619D01*
X0041796Y0059751D01*
X0041796Y0056281D01*
X0042663Y0055414D01*
X0044398Y0055414D01*
X0045265Y0056281D01*
X0049370Y0064514D02*
X0049370Y0069719D01*
X0051972Y0069719D01*
X0052839Y0068851D01*
X0052839Y0067116D01*
X0051972Y0066249D01*
X0049370Y0066249D01*
X0051105Y0066249D02*
X0052839Y0064514D01*
X0054894Y0064514D02*
X0058364Y0064514D01*
X0056629Y0064514D02*
X0056629Y0069719D01*
X0054894Y0067983D01*
X0060419Y0068851D02*
X0061286Y0069719D01*
X0063021Y0069719D01*
X0063888Y0068851D01*
X0063888Y0067983D01*
X0060419Y0064514D01*
X0063888Y0064514D01*
X0068521Y0081514D02*
X0071123Y0081514D01*
X0071990Y0082381D01*
X0071990Y0083249D01*
X0071123Y0084116D01*
X0068521Y0084116D01*
X0071123Y0084116D02*
X0071990Y0084983D01*
X0071990Y0085851D01*
X0071123Y0086719D01*
X0068521Y0086719D01*
X0068521Y0081514D01*
X0074045Y0081514D02*
X0077515Y0084983D01*
X0077515Y0085851D01*
X0076647Y0086719D01*
X0074913Y0086719D01*
X0074045Y0085851D01*
X0074045Y0081514D02*
X0077515Y0081514D01*
X0077615Y0115314D02*
X0074145Y0115314D01*
X0075880Y0115314D02*
X0075880Y0120519D01*
X0074145Y0118783D01*
X0072090Y0118783D02*
X0071223Y0117916D01*
X0068621Y0117916D01*
X0071223Y0117916D02*
X0072090Y0117049D01*
X0072090Y0116181D01*
X0071223Y0115314D01*
X0068621Y0115314D01*
X0068621Y0120519D01*
X0071223Y0120519D01*
X0072090Y0119651D01*
X0072090Y0118783D01*
X0096670Y0116414D02*
X0096670Y0121619D01*
X0098405Y0119883D01*
X0100139Y0121619D01*
X0100139Y0116414D01*
X0102194Y0116414D02*
X0103929Y0116414D01*
X0103062Y0116414D02*
X0103062Y0121619D01*
X0103929Y0121619D02*
X0102194Y0121619D01*
X0105878Y0120751D02*
X0105878Y0117281D01*
X0106745Y0116414D01*
X0108480Y0116414D01*
X0109347Y0117281D01*
X0111402Y0116414D02*
X0114871Y0116414D01*
X0113137Y0116414D02*
X0113137Y0121619D01*
X0111402Y0119883D01*
X0109347Y0120751D02*
X0108480Y0121619D01*
X0106745Y0121619D01*
X0105878Y0120751D01*
X0118537Y0132714D02*
X0120272Y0132714D01*
X0121139Y0133581D01*
X0123194Y0132714D02*
X0126664Y0136183D01*
X0126664Y0137051D01*
X0125796Y0137919D01*
X0124062Y0137919D01*
X0123194Y0137051D01*
X0121139Y0137051D02*
X0120272Y0137919D01*
X0118537Y0137919D01*
X0117670Y0137051D01*
X0117670Y0133581D01*
X0118537Y0132714D01*
X0123194Y0132714D02*
X0126664Y0132714D01*
X0128719Y0132714D02*
X0132188Y0136183D01*
X0132188Y0137051D01*
X0131321Y0137919D01*
X0129586Y0137919D01*
X0128719Y0137051D01*
X0128719Y0132714D02*
X0132188Y0132714D01*
X0106464Y0147814D02*
X0102994Y0147814D01*
X0104729Y0147814D02*
X0104729Y0153019D01*
X0102994Y0151283D01*
X0100939Y0152151D02*
X0100072Y0153019D01*
X0098337Y0153019D01*
X0097470Y0152151D01*
X0097470Y0148681D01*
X0098337Y0147814D01*
X0100072Y0147814D01*
X0100939Y0148681D01*
X0111671Y0156414D02*
X0111671Y0161619D01*
X0114273Y0161619D01*
X0115140Y0160751D01*
X0115140Y0159016D01*
X0114273Y0158149D01*
X0111671Y0158149D01*
X0113406Y0158149D02*
X0115140Y0156414D01*
X0117195Y0156414D02*
X0120665Y0156414D01*
X0118930Y0156414D02*
X0118930Y0161619D01*
X0117195Y0159883D01*
X0126921Y0159649D02*
X0129523Y0159649D01*
X0130390Y0160516D01*
X0130390Y0162251D01*
X0129523Y0163119D01*
X0126921Y0163119D01*
X0126921Y0157914D01*
X0128656Y0159649D02*
X0130390Y0157914D01*
X0132445Y0158781D02*
X0133313Y0157914D01*
X0135047Y0157914D01*
X0135915Y0158781D01*
X0135915Y0159649D01*
X0135047Y0160516D01*
X0134180Y0160516D01*
X0135047Y0160516D02*
X0135915Y0161383D01*
X0135915Y0162251D01*
X0135047Y0163119D01*
X0133313Y0163119D01*
X0132445Y0162251D01*
X0141321Y0156551D02*
X0141321Y0153081D01*
X0142188Y0152214D01*
X0143923Y0152214D01*
X0144790Y0153081D01*
X0146845Y0152214D02*
X0150315Y0155683D01*
X0150315Y0156551D01*
X0149447Y0157419D01*
X0147713Y0157419D01*
X0146845Y0156551D01*
X0144790Y0156551D02*
X0143923Y0157419D01*
X0142188Y0157419D01*
X0141321Y0156551D01*
X0146845Y0152214D02*
X0150315Y0152214D01*
X0138320Y0182364D02*
X0133116Y0182364D01*
X0133116Y0184966D01*
X0133983Y0185833D01*
X0135718Y0185833D01*
X0136585Y0184966D01*
X0136585Y0182364D01*
X0136585Y0184099D02*
X0138320Y0185833D01*
X0135718Y0187889D02*
X0135718Y0191358D01*
X0138320Y0190491D02*
X0133116Y0190491D01*
X0135718Y0187889D01*
X0134494Y0201414D02*
X0137964Y0204883D01*
X0137964Y0205751D01*
X0137096Y0206619D01*
X0135362Y0206619D01*
X0134494Y0205751D01*
X0132439Y0205751D02*
X0131572Y0206619D01*
X0129837Y0206619D01*
X0128970Y0205751D01*
X0128970Y0202281D01*
X0129837Y0201414D01*
X0131572Y0201414D01*
X0132439Y0202281D01*
X0134494Y0201414D02*
X0137964Y0201414D01*
X0140019Y0204016D02*
X0143488Y0204016D01*
X0142621Y0201414D02*
X0142621Y0206619D01*
X0140019Y0204016D01*
X0137670Y0217075D02*
X0136069Y0217075D01*
X0135668Y0217475D01*
X0135668Y0218276D01*
X0136069Y0218676D01*
X0136869Y0218676D02*
X0136869Y0217875D01*
X0136869Y0218676D02*
X0137670Y0218676D01*
X0138070Y0218276D01*
X0138070Y0217475D01*
X0137670Y0217075D01*
X0138070Y0220021D02*
X0135668Y0220021D01*
X0138070Y0221622D01*
X0135668Y0221622D01*
X0135668Y0222968D02*
X0135668Y0224169D01*
X0136069Y0224569D01*
X0137670Y0224569D01*
X0138070Y0224169D01*
X0138070Y0222968D01*
X0135668Y0222968D01*
X0128070Y0222968D02*
X0128070Y0224169D01*
X0127670Y0224569D01*
X0126069Y0224569D01*
X0125668Y0224169D01*
X0125668Y0222968D01*
X0128070Y0222968D01*
X0128070Y0221622D02*
X0125668Y0221622D01*
X0125668Y0220021D02*
X0128070Y0221622D01*
X0128070Y0220021D02*
X0125668Y0220021D01*
X0126069Y0218676D02*
X0125668Y0218276D01*
X0125668Y0217475D01*
X0126069Y0217075D01*
X0127670Y0217075D01*
X0128070Y0217475D01*
X0128070Y0218276D01*
X0127670Y0218676D01*
X0126869Y0218676D01*
X0126869Y0217875D01*
X0118070Y0218857D02*
X0117270Y0219658D01*
X0115668Y0219658D01*
X0115668Y0221004D02*
X0115668Y0221804D01*
X0115668Y0221404D02*
X0118070Y0221404D01*
X0118070Y0221004D02*
X0118070Y0221804D01*
X0118070Y0222968D02*
X0115668Y0222968D01*
X0118070Y0224569D01*
X0115668Y0224569D01*
X0111671Y0220083D02*
X0111671Y0219549D01*
X0111137Y0219015D01*
X0111671Y0218481D01*
X0111671Y0217948D01*
X0111137Y0217414D01*
X0110070Y0217414D01*
X0109536Y0217948D01*
X0110604Y0219015D02*
X0111137Y0219015D01*
X0111671Y0220083D02*
X0111137Y0220617D01*
X0110070Y0220617D01*
X0109536Y0220083D01*
X0107988Y0220083D02*
X0107454Y0220617D01*
X0106387Y0220617D01*
X0105853Y0220083D01*
X0104305Y0220083D02*
X0103771Y0220617D01*
X0102704Y0220617D01*
X0102170Y0220083D01*
X0102170Y0217948D01*
X0102704Y0217414D01*
X0103771Y0217414D01*
X0104305Y0217948D01*
X0105853Y0217414D02*
X0107988Y0219549D01*
X0107988Y0220083D01*
X0107988Y0217414D02*
X0105853Y0217414D01*
X0098870Y0217714D02*
X0096068Y0217714D01*
X0094667Y0219115D01*
X0096068Y0220517D01*
X0098870Y0220517D01*
X0098170Y0222318D02*
X0098870Y0223018D01*
X0098870Y0224419D01*
X0098170Y0225120D01*
X0096769Y0225120D01*
X0096068Y0224419D01*
X0096068Y0223719D01*
X0096769Y0222318D01*
X0094667Y0222318D01*
X0094667Y0225120D01*
X0096769Y0220517D02*
X0096769Y0217714D01*
X0088870Y0217714D02*
X0086068Y0217714D01*
X0084667Y0219115D01*
X0086068Y0220517D01*
X0088870Y0220517D01*
X0086769Y0220517D02*
X0086769Y0217714D01*
X0086769Y0222318D02*
X0086769Y0225120D01*
X0088870Y0224419D02*
X0084667Y0224419D01*
X0086769Y0222318D01*
X0078870Y0223018D02*
X0078170Y0222318D01*
X0078870Y0223018D02*
X0078870Y0224419D01*
X0078170Y0225120D01*
X0077469Y0225120D01*
X0076769Y0224419D01*
X0076769Y0223719D01*
X0076769Y0224419D02*
X0076068Y0225120D01*
X0075367Y0225120D01*
X0074667Y0224419D01*
X0074667Y0223018D01*
X0075367Y0222318D01*
X0076068Y0220517D02*
X0078870Y0220517D01*
X0076769Y0220517D02*
X0076769Y0217714D01*
X0076068Y0217714D02*
X0074667Y0219115D01*
X0076068Y0220517D01*
X0076068Y0217714D02*
X0078870Y0217714D01*
X0068870Y0217714D02*
X0066068Y0217714D01*
X0064667Y0219115D01*
X0066068Y0220517D01*
X0068870Y0220517D01*
X0068870Y0222318D02*
X0066068Y0225120D01*
X0065367Y0225120D01*
X0064667Y0224419D01*
X0064667Y0223018D01*
X0065367Y0222318D01*
X0066769Y0220517D02*
X0066769Y0217714D01*
X0068870Y0222318D02*
X0068870Y0225120D01*
X0058870Y0225120D02*
X0058870Y0222318D01*
X0058870Y0223719D02*
X0054667Y0223719D01*
X0056068Y0222318D01*
X0056068Y0220517D02*
X0058870Y0220517D01*
X0056769Y0220517D02*
X0056769Y0217714D01*
X0056068Y0217714D02*
X0054667Y0219115D01*
X0056068Y0220517D01*
X0056068Y0217714D02*
X0058870Y0217714D01*
X0048870Y0217714D02*
X0046068Y0217714D01*
X0044667Y0219115D01*
X0046068Y0220517D01*
X0048870Y0220517D01*
X0048170Y0222318D02*
X0045367Y0225120D01*
X0048170Y0225120D01*
X0048870Y0224419D01*
X0048870Y0223018D01*
X0048170Y0222318D01*
X0045367Y0222318D01*
X0044667Y0223018D01*
X0044667Y0224419D01*
X0045367Y0225120D01*
X0046769Y0220517D02*
X0046769Y0217714D01*
X0047169Y0204466D02*
X0048237Y0204466D01*
X0048770Y0203932D01*
X0048770Y0202865D01*
X0048237Y0202331D01*
X0047169Y0202331D02*
X0046635Y0203398D01*
X0046635Y0203932D01*
X0047169Y0204466D01*
X0045568Y0204466D02*
X0045568Y0202331D01*
X0047169Y0202331D01*
X0048237Y0200783D02*
X0048770Y0200249D01*
X0048770Y0199181D01*
X0048237Y0198648D01*
X0046101Y0198648D01*
X0045568Y0199181D01*
X0045568Y0200249D01*
X0046101Y0200783D01*
X0041570Y0200249D02*
X0041037Y0200783D01*
X0041570Y0200249D02*
X0041570Y0199181D01*
X0041037Y0198648D01*
X0038901Y0198648D01*
X0038368Y0199181D01*
X0038368Y0200249D01*
X0038901Y0200783D01*
X0039969Y0202331D02*
X0039969Y0204466D01*
X0041570Y0203932D02*
X0038368Y0203932D01*
X0039969Y0202331D01*
X0034370Y0202865D02*
X0033837Y0202331D01*
X0034370Y0202865D02*
X0034370Y0203932D01*
X0033837Y0204466D01*
X0033303Y0204466D01*
X0032769Y0203932D01*
X0032769Y0203398D01*
X0032769Y0203932D02*
X0032235Y0204466D01*
X0031701Y0204466D01*
X0031168Y0203932D01*
X0031168Y0202865D01*
X0031701Y0202331D01*
X0031701Y0200783D02*
X0031168Y0200249D01*
X0031168Y0199181D01*
X0031701Y0198648D01*
X0033837Y0198648D01*
X0034370Y0199181D01*
X0034370Y0200249D01*
X0033837Y0200783D01*
X0034170Y0193324D02*
X0032769Y0191923D01*
X0032769Y0192624D02*
X0032769Y0190522D01*
X0034170Y0190522D02*
X0029967Y0190522D01*
X0029967Y0192624D01*
X0030667Y0193324D01*
X0032069Y0193324D01*
X0032769Y0192624D01*
X0036767Y0192624D02*
X0036767Y0190522D01*
X0040970Y0190522D01*
X0039569Y0190522D02*
X0039569Y0192624D01*
X0038869Y0193324D01*
X0037467Y0193324D01*
X0036767Y0192624D01*
X0039569Y0191923D02*
X0040970Y0193324D01*
X0040970Y0188721D02*
X0040970Y0185919D01*
X0036767Y0185919D01*
X0036767Y0188721D01*
X0038869Y0187320D02*
X0038869Y0185919D01*
X0039569Y0184117D02*
X0038869Y0183417D01*
X0038869Y0182015D01*
X0038168Y0181315D01*
X0037467Y0181315D01*
X0036767Y0182015D01*
X0036767Y0183417D01*
X0037467Y0184117D01*
X0039569Y0184117D02*
X0040270Y0184117D01*
X0040970Y0183417D01*
X0040970Y0182015D01*
X0040270Y0181315D01*
X0040270Y0179514D02*
X0040970Y0178813D01*
X0040970Y0177412D01*
X0040270Y0176711D01*
X0038869Y0177412D02*
X0038869Y0178813D01*
X0039569Y0179514D01*
X0040270Y0179514D01*
X0038869Y0177412D02*
X0038168Y0176711D01*
X0037467Y0176711D01*
X0036767Y0177412D01*
X0036767Y0178813D01*
X0037467Y0179514D01*
X0034170Y0179514D02*
X0034170Y0176711D01*
X0029967Y0176711D01*
X0029967Y0179514D01*
X0029967Y0181315D02*
X0031368Y0182716D01*
X0029967Y0184117D01*
X0034170Y0184117D01*
X0034170Y0185919D02*
X0029967Y0185919D01*
X0029967Y0188721D01*
X0032069Y0187320D02*
X0032069Y0185919D01*
X0034170Y0185919D02*
X0034170Y0188721D01*
X0034170Y0181315D02*
X0029967Y0181315D01*
X0032069Y0178113D02*
X0032069Y0176711D01*
X0034170Y0175044D02*
X0034170Y0173643D01*
X0034170Y0174343D02*
X0029967Y0174343D01*
X0029967Y0173643D02*
X0029967Y0175044D01*
X0030667Y0171841D02*
X0029967Y0171141D01*
X0029967Y0169039D01*
X0034170Y0169039D01*
X0034170Y0171141D01*
X0033470Y0171841D01*
X0030667Y0171841D01*
X0036767Y0171841D02*
X0039569Y0171841D01*
X0040970Y0170440D01*
X0039569Y0169039D01*
X0036767Y0169039D01*
X0036767Y0173643D02*
X0036767Y0175044D01*
X0036767Y0174343D02*
X0040970Y0174343D01*
X0040970Y0173643D02*
X0040970Y0175044D01*
X0043867Y0174233D02*
X0043867Y0172832D01*
X0044567Y0172132D01*
X0044567Y0170331D02*
X0045268Y0170331D01*
X0045969Y0169630D01*
X0046669Y0170331D01*
X0047370Y0170331D01*
X0048070Y0169630D01*
X0048070Y0168229D01*
X0047370Y0167528D01*
X0045969Y0168930D02*
X0045969Y0169630D01*
X0044567Y0170331D02*
X0043867Y0169630D01*
X0043867Y0168229D01*
X0044567Y0167528D01*
X0048070Y0172132D02*
X0045268Y0174934D01*
X0044567Y0174934D01*
X0043867Y0174233D01*
X0045969Y0176735D02*
X0045969Y0178837D01*
X0046669Y0179538D01*
X0047370Y0179538D01*
X0048070Y0178837D01*
X0048070Y0177436D01*
X0047370Y0176735D01*
X0045969Y0176735D01*
X0044567Y0178137D01*
X0043867Y0179538D01*
X0048070Y0174934D02*
X0048070Y0172132D01*
X0052766Y0175232D02*
X0053633Y0174365D01*
X0057103Y0174365D01*
X0057970Y0175232D01*
X0057970Y0176967D01*
X0057103Y0177834D01*
X0057103Y0179889D02*
X0057970Y0180757D01*
X0057970Y0182491D01*
X0057103Y0183359D01*
X0053633Y0183359D01*
X0052766Y0182491D01*
X0052766Y0180757D01*
X0053633Y0179889D01*
X0054501Y0179889D01*
X0055368Y0180757D01*
X0055368Y0183359D01*
X0060166Y0183408D02*
X0061033Y0181673D01*
X0062768Y0179939D01*
X0062768Y0182541D01*
X0063635Y0183408D01*
X0064503Y0183408D01*
X0065370Y0182541D01*
X0065370Y0180806D01*
X0064503Y0179939D01*
X0062768Y0179939D01*
X0064503Y0177883D02*
X0065370Y0177016D01*
X0065370Y0175281D01*
X0064503Y0174414D01*
X0061033Y0174414D01*
X0060166Y0175281D01*
X0060166Y0177016D01*
X0061033Y0177883D01*
X0053633Y0177834D02*
X0052766Y0176967D01*
X0052766Y0175232D01*
X0067983Y0166044D02*
X0069717Y0166044D01*
X0068850Y0166044D02*
X0068850Y0160839D01*
X0067983Y0160839D02*
X0069717Y0160839D01*
X0071666Y0161707D02*
X0072533Y0160839D01*
X0074268Y0160839D01*
X0075135Y0161707D01*
X0077190Y0160839D02*
X0080659Y0164309D01*
X0080659Y0165176D01*
X0079792Y0166044D01*
X0078057Y0166044D01*
X0077190Y0165176D01*
X0075135Y0165176D02*
X0074268Y0166044D01*
X0072533Y0166044D01*
X0071666Y0165176D01*
X0071666Y0161707D01*
X0077190Y0160839D02*
X0080659Y0160839D01*
X0080233Y0158258D02*
X0079366Y0157391D01*
X0079366Y0155656D01*
X0080233Y0154789D01*
X0080233Y0152733D02*
X0081968Y0152733D01*
X0082835Y0151866D01*
X0082835Y0149264D01*
X0082835Y0150999D02*
X0084570Y0152733D01*
X0084570Y0154789D02*
X0081101Y0158258D01*
X0080233Y0158258D01*
X0084570Y0158258D02*
X0084570Y0154789D01*
X0080233Y0152733D02*
X0079366Y0151866D01*
X0079366Y0149264D01*
X0084570Y0149264D01*
X0068920Y0148391D02*
X0068920Y0146656D01*
X0068053Y0145789D01*
X0066318Y0145789D02*
X0065451Y0147523D01*
X0065451Y0148391D01*
X0066318Y0149258D01*
X0068053Y0149258D01*
X0068920Y0148391D01*
X0066318Y0145789D02*
X0063716Y0145789D01*
X0063716Y0149258D01*
X0064583Y0143733D02*
X0066318Y0143733D01*
X0067185Y0142866D01*
X0067185Y0140264D01*
X0067185Y0141999D02*
X0068920Y0143733D01*
X0068920Y0140264D02*
X0063716Y0140264D01*
X0063716Y0142866D01*
X0064583Y0143733D01*
X0048070Y0149114D02*
X0048070Y0151917D01*
X0047370Y0153718D02*
X0048070Y0154418D01*
X0048070Y0155819D01*
X0047370Y0156520D01*
X0045969Y0156520D01*
X0045969Y0155119D01*
X0047370Y0153718D02*
X0044567Y0153718D01*
X0043867Y0154418D01*
X0043867Y0155819D01*
X0044567Y0156520D01*
X0043867Y0158321D02*
X0043867Y0160423D01*
X0044567Y0161124D01*
X0045969Y0161124D01*
X0046669Y0160423D01*
X0046669Y0158321D01*
X0048070Y0158321D02*
X0043867Y0158321D01*
X0040970Y0158031D02*
X0038168Y0158031D01*
X0036767Y0156630D01*
X0038168Y0155228D01*
X0040970Y0155228D01*
X0040270Y0153427D02*
X0037467Y0153427D01*
X0036767Y0152726D01*
X0036767Y0150625D01*
X0040970Y0150625D01*
X0040970Y0152726D01*
X0040270Y0153427D01*
X0038869Y0155228D02*
X0038869Y0158031D01*
X0040970Y0159832D02*
X0036767Y0159832D01*
X0040970Y0162634D01*
X0036767Y0162634D01*
X0034170Y0162634D02*
X0029967Y0162634D01*
X0029967Y0159832D02*
X0034170Y0162634D01*
X0034170Y0159832D02*
X0029967Y0159832D01*
X0029967Y0158031D02*
X0029967Y0155228D01*
X0034170Y0155228D01*
X0034170Y0158031D01*
X0032069Y0156630D02*
X0032069Y0155228D01*
X0032769Y0153427D02*
X0029967Y0153427D01*
X0032769Y0153427D02*
X0034170Y0152026D01*
X0032769Y0150625D01*
X0029967Y0150625D01*
X0029967Y0148824D02*
X0029967Y0146021D01*
X0034170Y0146021D01*
X0034170Y0148824D01*
X0032069Y0147422D02*
X0032069Y0146021D01*
X0029967Y0144220D02*
X0029967Y0141418D01*
X0029967Y0142819D02*
X0034170Y0142819D01*
X0036767Y0142118D02*
X0037467Y0141418D01*
X0040270Y0141418D01*
X0040970Y0142118D01*
X0040970Y0143519D01*
X0040270Y0144220D01*
X0037467Y0144220D01*
X0036767Y0143519D01*
X0036767Y0142118D01*
X0036767Y0139617D02*
X0036767Y0138215D01*
X0036767Y0138916D02*
X0040270Y0138916D01*
X0040970Y0138215D01*
X0040970Y0137515D01*
X0040270Y0136814D01*
X0034170Y0137515D02*
X0033470Y0136814D01*
X0034170Y0137515D02*
X0034170Y0138916D01*
X0033470Y0139617D01*
X0032769Y0139617D01*
X0032069Y0138916D01*
X0032069Y0137515D01*
X0031368Y0136814D01*
X0030667Y0136814D01*
X0029967Y0137515D01*
X0029967Y0138916D01*
X0030667Y0139617D01*
X0036767Y0146021D02*
X0036767Y0148123D01*
X0037467Y0148824D01*
X0038869Y0148824D01*
X0039569Y0148123D01*
X0039569Y0146021D01*
X0040970Y0146021D02*
X0036767Y0146021D01*
X0039569Y0147422D02*
X0040970Y0148824D01*
X0043867Y0149114D02*
X0048070Y0149114D01*
X0045969Y0149114D02*
X0045969Y0150515D01*
X0043867Y0151917D02*
X0043867Y0149114D01*
X0046669Y0159722D02*
X0048070Y0161124D01*
X0086350Y0185885D02*
X0086352Y0185924D01*
X0086358Y0185963D01*
X0086368Y0186001D01*
X0086381Y0186038D01*
X0086398Y0186073D01*
X0086418Y0186107D01*
X0086442Y0186138D01*
X0086469Y0186167D01*
X0086498Y0186193D01*
X0086530Y0186216D01*
X0086564Y0186236D01*
X0086600Y0186252D01*
X0086637Y0186264D01*
X0086676Y0186273D01*
X0086715Y0186278D01*
X0086754Y0186279D01*
X0086793Y0186276D01*
X0086832Y0186269D01*
X0086869Y0186258D01*
X0086906Y0186244D01*
X0086941Y0186226D01*
X0086974Y0186205D01*
X0087005Y0186180D01*
X0087033Y0186153D01*
X0087058Y0186123D01*
X0087080Y0186090D01*
X0087099Y0186056D01*
X0087114Y0186020D01*
X0087126Y0185982D01*
X0087134Y0185944D01*
X0087138Y0185905D01*
X0087138Y0185865D01*
X0087134Y0185826D01*
X0087126Y0185788D01*
X0087114Y0185750D01*
X0087099Y0185714D01*
X0087080Y0185680D01*
X0087058Y0185647D01*
X0087033Y0185617D01*
X0087005Y0185590D01*
X0086974Y0185565D01*
X0086941Y0185544D01*
X0086906Y0185526D01*
X0086869Y0185512D01*
X0086832Y0185501D01*
X0086793Y0185494D01*
X0086754Y0185491D01*
X0086715Y0185492D01*
X0086676Y0185497D01*
X0086637Y0185506D01*
X0086600Y0185518D01*
X0086564Y0185534D01*
X0086530Y0185554D01*
X0086498Y0185577D01*
X0086469Y0185603D01*
X0086442Y0185632D01*
X0086418Y0185663D01*
X0086398Y0185697D01*
X0086381Y0185732D01*
X0086368Y0185769D01*
X0086358Y0185807D01*
X0086352Y0185846D01*
X0086350Y0185885D01*
X0094166Y0182406D02*
X0095901Y0180672D01*
X0095033Y0178617D02*
X0094166Y0177749D01*
X0094166Y0176015D01*
X0095033Y0175147D01*
X0098503Y0175147D01*
X0099370Y0176015D01*
X0099370Y0177749D01*
X0098503Y0178617D01*
X0099370Y0180672D02*
X0099370Y0184141D01*
X0099370Y0182406D02*
X0094166Y0182406D01*
X0094166Y0173199D02*
X0094166Y0171464D01*
X0094166Y0172331D02*
X0099370Y0172331D01*
X0099370Y0171464D02*
X0099370Y0173199D01*
X0155668Y0217475D02*
X0156069Y0217075D01*
X0155668Y0217475D02*
X0155668Y0218276D01*
X0156069Y0218676D01*
X0156469Y0218676D01*
X0156869Y0218276D01*
X0157270Y0218676D01*
X0157670Y0218676D01*
X0158070Y0218276D01*
X0158070Y0217475D01*
X0157670Y0217075D01*
X0156869Y0217875D02*
X0156869Y0218276D01*
X0157270Y0220021D02*
X0155668Y0220021D01*
X0155668Y0221622D02*
X0157270Y0221622D01*
X0158070Y0220822D01*
X0157270Y0220021D01*
X0157670Y0222968D02*
X0158070Y0223368D01*
X0158070Y0224169D01*
X0157670Y0224569D01*
X0157270Y0224569D01*
X0156869Y0224169D01*
X0156869Y0223768D01*
X0156869Y0224169D02*
X0156469Y0224569D01*
X0156069Y0224569D01*
X0155668Y0224169D01*
X0155668Y0223368D01*
X0156069Y0222968D01*
X0148870Y0223298D02*
X0147803Y0224366D01*
X0145668Y0224366D01*
X0145668Y0222231D02*
X0147803Y0222231D01*
X0148870Y0223298D01*
X0148337Y0220683D02*
X0148870Y0220149D01*
X0148870Y0219081D01*
X0148337Y0218548D01*
X0147269Y0218548D02*
X0146735Y0219615D01*
X0146735Y0220149D01*
X0147269Y0220683D01*
X0148337Y0220683D01*
X0147269Y0218548D02*
X0145668Y0218548D01*
X0145668Y0220683D01*
X0165668Y0220421D02*
X0166069Y0220021D01*
X0166469Y0220021D01*
X0166869Y0220421D01*
X0166869Y0221222D01*
X0167270Y0221622D01*
X0167670Y0221622D01*
X0168070Y0221222D01*
X0168070Y0220421D01*
X0167670Y0220021D01*
X0168070Y0218676D02*
X0167270Y0217875D01*
X0167270Y0218276D02*
X0167270Y0217075D01*
X0168070Y0217075D02*
X0165668Y0217075D01*
X0165668Y0218276D01*
X0166069Y0218676D01*
X0166869Y0218676D01*
X0167270Y0218276D01*
X0165668Y0220421D02*
X0165668Y0221222D01*
X0166069Y0221622D01*
X0165668Y0222968D02*
X0165668Y0224569D01*
X0165668Y0223768D02*
X0168070Y0223768D01*
X0201059Y0198017D02*
X0201059Y0197317D01*
X0201759Y0196616D01*
X0203160Y0196616D01*
X0203861Y0195915D01*
X0203861Y0195215D01*
X0203160Y0194514D01*
X0201759Y0194514D01*
X0201059Y0195215D01*
X0201059Y0198017D02*
X0201759Y0198718D01*
X0203160Y0198718D01*
X0203861Y0198017D01*
X0205662Y0198718D02*
X0205662Y0194514D01*
X0205662Y0195915D02*
X0207764Y0195915D01*
X0208465Y0196616D01*
X0208465Y0198017D01*
X0207764Y0198718D01*
X0205662Y0198718D01*
X0210266Y0197317D02*
X0211667Y0198718D01*
X0211667Y0194514D01*
X0210266Y0194514D02*
X0213068Y0194514D01*
X0210770Y0220814D02*
X0210770Y0225018D01*
X0213572Y0225018D01*
X0215374Y0223617D02*
X0216775Y0225018D01*
X0218176Y0223617D01*
X0218176Y0220814D01*
X0219977Y0220814D02*
X0222780Y0220814D01*
X0224581Y0220814D02*
X0227383Y0220814D01*
X0224581Y0220814D02*
X0224581Y0225018D01*
X0219977Y0225018D02*
X0219977Y0220814D01*
X0218176Y0222916D02*
X0215374Y0222916D01*
X0215374Y0223617D02*
X0215374Y0220814D01*
X0212171Y0222916D02*
X0210770Y0222916D01*
X0233788Y0224317D02*
X0234488Y0225018D01*
X0235889Y0225018D01*
X0236590Y0224317D01*
X0236590Y0223617D01*
X0233788Y0220814D01*
X0236590Y0220814D01*
X0238391Y0221515D02*
X0241194Y0224317D01*
X0241194Y0221515D01*
X0240493Y0220814D01*
X0239092Y0220814D01*
X0238391Y0221515D01*
X0238391Y0224317D01*
X0239092Y0225018D01*
X0240493Y0225018D01*
X0241194Y0224317D01*
X0242995Y0223617D02*
X0244396Y0225018D01*
X0244396Y0220814D01*
X0242995Y0220814D02*
X0245797Y0220814D01*
X0247598Y0220814D02*
X0250401Y0220814D01*
X0249000Y0220814D02*
X0249000Y0225018D01*
X0247598Y0223617D01*
X0118070Y0218857D02*
X0117270Y0218057D01*
X0115668Y0218057D01*
X0229167Y0119861D02*
X0229867Y0120562D01*
X0232670Y0117760D01*
X0233370Y0118460D01*
X0233370Y0119861D01*
X0232670Y0120562D01*
X0229867Y0120562D01*
X0229167Y0119861D02*
X0229167Y0118460D01*
X0229867Y0117760D01*
X0232670Y0117760D01*
X0233370Y0115959D02*
X0233370Y0113156D01*
X0233370Y0114557D02*
X0229167Y0114557D01*
X0230568Y0113156D01*
X0229867Y0111355D02*
X0229167Y0110654D01*
X0229167Y0109253D01*
X0229867Y0108553D01*
X0232670Y0108553D01*
X0233370Y0109253D01*
X0233370Y0110654D01*
X0232670Y0111355D01*
X0247317Y0111112D02*
X0247317Y0109711D01*
X0248017Y0109010D01*
X0248718Y0109010D01*
X0249419Y0109711D01*
X0249419Y0111112D01*
X0250119Y0111813D01*
X0250820Y0111813D01*
X0251520Y0111112D01*
X0251520Y0109711D01*
X0250820Y0109010D01*
X0250119Y0109010D01*
X0249419Y0109711D01*
X0249419Y0111112D02*
X0248718Y0111813D01*
X0248017Y0111813D01*
X0247317Y0111112D01*
X0248017Y0107209D02*
X0249419Y0107209D01*
X0250119Y0106508D01*
X0250119Y0104407D01*
X0250119Y0105808D02*
X0251520Y0107209D01*
X0251520Y0104407D02*
X0247317Y0104407D01*
X0247317Y0106508D01*
X0248017Y0107209D01*
X0205770Y0108122D02*
X0205070Y0107421D01*
X0205770Y0108122D02*
X0205770Y0109523D01*
X0205070Y0110224D01*
X0203669Y0110224D01*
X0202968Y0109523D01*
X0202968Y0108822D01*
X0203669Y0107421D01*
X0201567Y0107421D01*
X0201567Y0110224D01*
X0197020Y0110274D02*
X0197020Y0107471D01*
X0197020Y0108872D02*
X0192817Y0108872D01*
X0194218Y0107471D01*
X0197020Y0105670D02*
X0197020Y0102868D01*
X0197020Y0104269D02*
X0192817Y0104269D01*
X0194218Y0102868D01*
X0193517Y0101067D02*
X0192817Y0100366D01*
X0192817Y0098965D01*
X0193517Y0098264D01*
X0196320Y0098264D01*
X0197020Y0098965D01*
X0197020Y0100366D01*
X0196320Y0101067D01*
X0201567Y0100316D02*
X0201567Y0098915D01*
X0202267Y0098214D01*
X0205070Y0098214D01*
X0205770Y0098915D01*
X0205770Y0100316D01*
X0205070Y0101017D01*
X0205770Y0102818D02*
X0205770Y0105620D01*
X0205770Y0104219D02*
X0201567Y0104219D01*
X0202968Y0102818D01*
X0202267Y0101017D02*
X0201567Y0100316D01*
X0156580Y0085117D02*
X0155879Y0085818D01*
X0154478Y0085818D01*
X0153777Y0085117D01*
X0155178Y0083716D02*
X0155879Y0083716D01*
X0144288Y0095214D02*
X0140819Y0095214D01*
X0142554Y0095214D02*
X0142554Y0100419D01*
X0140819Y0098683D01*
X0138764Y0100419D02*
X0138764Y0095214D01*
X0137029Y0096949D01*
X0135294Y0095214D01*
X0135294Y0100419D01*
X0133239Y0099551D02*
X0132372Y0100419D01*
X0130637Y0100419D01*
X0129770Y0099551D01*
X0129770Y0098683D01*
X0130637Y0097816D01*
X0132372Y0097816D01*
X0133239Y0096949D01*
X0133239Y0096081D01*
X0132372Y0095214D01*
X0130637Y0095214D01*
X0129770Y0096081D01*
X0147337Y0059217D02*
X0146804Y0058683D01*
X0146804Y0056548D01*
X0147337Y0056014D01*
X0148405Y0056014D01*
X0148939Y0056548D01*
X0150487Y0056548D02*
X0150487Y0056014D01*
X0150487Y0056548D02*
X0152622Y0058683D01*
X0152622Y0059217D01*
X0150487Y0059217D01*
X0148939Y0058683D02*
X0148405Y0059217D01*
X0147337Y0059217D01*
X0151233Y0054994D02*
X0152300Y0054994D01*
X0151767Y0054994D02*
X0151767Y0051791D01*
X0152300Y0051791D02*
X0151233Y0051791D01*
X0153688Y0052325D02*
X0153688Y0054460D01*
X0154222Y0054994D01*
X0155289Y0054994D01*
X0155823Y0054460D01*
X0157371Y0054460D02*
X0157371Y0053926D01*
X0157905Y0053393D01*
X0158972Y0053393D01*
X0159506Y0052859D01*
X0159506Y0052325D01*
X0158972Y0051791D01*
X0157905Y0051791D01*
X0157371Y0052325D01*
X0157371Y0052859D01*
X0157905Y0053393D01*
X0158972Y0053393D02*
X0159506Y0053926D01*
X0159506Y0054460D01*
X0158972Y0054994D01*
X0157905Y0054994D01*
X0157371Y0054460D01*
X0157205Y0056014D02*
X0157739Y0056548D01*
X0157205Y0056014D02*
X0156137Y0056014D01*
X0155604Y0056548D01*
X0155604Y0058683D01*
X0156137Y0059217D01*
X0157205Y0059217D01*
X0157739Y0058683D01*
X0159287Y0058683D02*
X0159287Y0058149D01*
X0159820Y0057615D01*
X0160888Y0057615D01*
X0161422Y0057081D01*
X0161422Y0056548D01*
X0160888Y0056014D01*
X0159820Y0056014D01*
X0159287Y0056548D01*
X0159287Y0057081D01*
X0159820Y0057615D01*
X0160888Y0057615D02*
X0161422Y0058149D01*
X0161422Y0058683D01*
X0160888Y0059217D01*
X0159820Y0059217D01*
X0159287Y0058683D01*
X0155823Y0052325D02*
X0155289Y0051791D01*
X0154222Y0051791D01*
X0153688Y0052325D01*
X0153854Y0030317D02*
X0153854Y0027114D01*
X0152787Y0027114D02*
X0154922Y0027114D01*
X0152787Y0029249D02*
X0153854Y0030317D01*
X0150171Y0030317D02*
X0150171Y0027114D01*
X0149104Y0027114D02*
X0151239Y0027114D01*
X0149104Y0029249D02*
X0150171Y0030317D01*
X0147556Y0029783D02*
X0147556Y0028715D01*
X0147022Y0028181D01*
X0145421Y0028181D01*
X0145421Y0027114D02*
X0145421Y0030317D01*
X0147022Y0030317D01*
X0147556Y0029783D01*
X0146488Y0028181D02*
X0147556Y0027114D01*
X0048870Y0008514D02*
X0044667Y0008514D01*
D11*
X0121770Y0027814D02*
X0130170Y0027814D01*
X0131370Y0027814D01*
X0131370Y0029214D01*
X0131370Y0027814D02*
X0139970Y0027814D01*
X0139970Y0029214D01*
X0173370Y0029214D02*
X0173370Y0027614D01*
X0193570Y0027614D01*
X0193570Y0029214D01*
X0193570Y0027614D02*
X0207370Y0027614D01*
X0145570Y0061214D02*
X0145570Y0070614D01*
X0143570Y0070614D01*
X0145570Y0070614D02*
X0145570Y0080414D01*
X0145570Y0061214D02*
X0143570Y0061214D01*
X0101370Y0200814D02*
X0101370Y0202014D01*
X0101370Y0202214D02*
X0101370Y0206014D01*
X0073770Y0206014D01*
X0074170Y0206014D01*
X0074170Y0200814D01*
X0073770Y0206014D02*
X0030570Y0206014D01*
D12*
X0102170Y0162214D03*
X0081170Y0070814D03*
X0080370Y0044614D03*
X0154970Y0042014D03*
X0166170Y0053614D03*
D13*
X0163870Y0063864D02*
X0183870Y0063864D01*
D14*
X0183870Y0063164D02*
X0183870Y0077164D01*
X0183868Y0077224D01*
X0183863Y0077285D01*
X0183854Y0077344D01*
X0183841Y0077403D01*
X0183825Y0077462D01*
X0183805Y0077519D01*
X0183782Y0077574D01*
X0183755Y0077629D01*
X0183726Y0077681D01*
X0183693Y0077732D01*
X0183657Y0077781D01*
X0183619Y0077827D01*
X0183577Y0077871D01*
X0183533Y0077913D01*
X0183487Y0077951D01*
X0183438Y0077987D01*
X0183387Y0078020D01*
X0183335Y0078049D01*
X0183280Y0078076D01*
X0183225Y0078099D01*
X0183168Y0078119D01*
X0183109Y0078135D01*
X0183050Y0078148D01*
X0182991Y0078157D01*
X0182930Y0078162D01*
X0182870Y0078164D01*
X0179370Y0078164D02*
X0178370Y0078164D01*
X0174370Y0078164D02*
X0173370Y0078164D01*
X0169370Y0078164D02*
X0168370Y0078164D01*
X0164870Y0078164D02*
X0164810Y0078162D01*
X0164749Y0078157D01*
X0164690Y0078148D01*
X0164631Y0078135D01*
X0164572Y0078119D01*
X0164515Y0078099D01*
X0164460Y0078076D01*
X0164405Y0078049D01*
X0164353Y0078020D01*
X0164302Y0077987D01*
X0164253Y0077951D01*
X0164207Y0077913D01*
X0164163Y0077871D01*
X0164121Y0077827D01*
X0164083Y0077781D01*
X0164047Y0077732D01*
X0164014Y0077681D01*
X0163985Y0077629D01*
X0163958Y0077574D01*
X0163935Y0077519D01*
X0163915Y0077462D01*
X0163899Y0077403D01*
X0163886Y0077344D01*
X0163877Y0077285D01*
X0163872Y0077224D01*
X0163870Y0077164D01*
X0163870Y0063164D01*
X0163872Y0063104D01*
X0163877Y0063043D01*
X0163886Y0062984D01*
X0163899Y0062925D01*
X0163915Y0062866D01*
X0163935Y0062809D01*
X0163958Y0062754D01*
X0163985Y0062699D01*
X0164014Y0062647D01*
X0164047Y0062596D01*
X0164083Y0062547D01*
X0164121Y0062501D01*
X0164163Y0062457D01*
X0164207Y0062415D01*
X0164253Y0062377D01*
X0164302Y0062341D01*
X0164353Y0062308D01*
X0164405Y0062279D01*
X0164460Y0062252D01*
X0164515Y0062229D01*
X0164572Y0062209D01*
X0164631Y0062193D01*
X0164690Y0062180D01*
X0164749Y0062171D01*
X0164810Y0062166D01*
X0164870Y0062164D01*
X0168370Y0062164D02*
X0169370Y0062164D01*
X0173370Y0062164D02*
X0174370Y0062164D01*
X0178370Y0062164D02*
X0179370Y0062164D01*
X0182870Y0062164D02*
X0182930Y0062166D01*
X0182991Y0062171D01*
X0183050Y0062180D01*
X0183109Y0062193D01*
X0183168Y0062209D01*
X0183225Y0062229D01*
X0183280Y0062252D01*
X0183335Y0062279D01*
X0183387Y0062308D01*
X0183438Y0062341D01*
X0183487Y0062377D01*
X0183533Y0062415D01*
X0183577Y0062457D01*
X0183619Y0062501D01*
X0183657Y0062547D01*
X0183693Y0062596D01*
X0183726Y0062647D01*
X0183755Y0062699D01*
X0183782Y0062754D01*
X0183805Y0062809D01*
X0183825Y0062866D01*
X0183841Y0062925D01*
X0183854Y0062984D01*
X0183863Y0063043D01*
X0183868Y0063104D01*
X0183870Y0063164D01*
X0165370Y0066164D02*
X0165372Y0066241D01*
X0165378Y0066318D01*
X0165388Y0066395D01*
X0165402Y0066471D01*
X0165419Y0066546D01*
X0165441Y0066620D01*
X0165466Y0066693D01*
X0165496Y0066765D01*
X0165528Y0066835D01*
X0165565Y0066903D01*
X0165604Y0066969D01*
X0165647Y0067033D01*
X0165694Y0067095D01*
X0165743Y0067154D01*
X0165796Y0067211D01*
X0165851Y0067265D01*
X0165909Y0067316D01*
X0165970Y0067364D01*
X0166033Y0067409D01*
X0166098Y0067450D01*
X0166165Y0067488D01*
X0166234Y0067523D01*
X0166305Y0067553D01*
X0166377Y0067581D01*
X0166451Y0067604D01*
X0166525Y0067624D01*
X0166601Y0067640D01*
X0166677Y0067652D01*
X0166754Y0067660D01*
X0166831Y0067664D01*
X0166909Y0067664D01*
X0166986Y0067660D01*
X0167063Y0067652D01*
X0167139Y0067640D01*
X0167215Y0067624D01*
X0167289Y0067604D01*
X0167363Y0067581D01*
X0167435Y0067553D01*
X0167506Y0067523D01*
X0167575Y0067488D01*
X0167642Y0067450D01*
X0167707Y0067409D01*
X0167770Y0067364D01*
X0167831Y0067316D01*
X0167889Y0067265D01*
X0167944Y0067211D01*
X0167997Y0067154D01*
X0168046Y0067095D01*
X0168093Y0067033D01*
X0168136Y0066969D01*
X0168175Y0066903D01*
X0168212Y0066835D01*
X0168244Y0066765D01*
X0168274Y0066693D01*
X0168299Y0066620D01*
X0168321Y0066546D01*
X0168338Y0066471D01*
X0168352Y0066395D01*
X0168362Y0066318D01*
X0168368Y0066241D01*
X0168370Y0066164D01*
X0168368Y0066087D01*
X0168362Y0066010D01*
X0168352Y0065933D01*
X0168338Y0065857D01*
X0168321Y0065782D01*
X0168299Y0065708D01*
X0168274Y0065635D01*
X0168244Y0065563D01*
X0168212Y0065493D01*
X0168175Y0065425D01*
X0168136Y0065359D01*
X0168093Y0065295D01*
X0168046Y0065233D01*
X0167997Y0065174D01*
X0167944Y0065117D01*
X0167889Y0065063D01*
X0167831Y0065012D01*
X0167770Y0064964D01*
X0167707Y0064919D01*
X0167642Y0064878D01*
X0167575Y0064840D01*
X0167506Y0064805D01*
X0167435Y0064775D01*
X0167363Y0064747D01*
X0167289Y0064724D01*
X0167215Y0064704D01*
X0167139Y0064688D01*
X0167063Y0064676D01*
X0166986Y0064668D01*
X0166909Y0064664D01*
X0166831Y0064664D01*
X0166754Y0064668D01*
X0166677Y0064676D01*
X0166601Y0064688D01*
X0166525Y0064704D01*
X0166451Y0064724D01*
X0166377Y0064747D01*
X0166305Y0064775D01*
X0166234Y0064805D01*
X0166165Y0064840D01*
X0166098Y0064878D01*
X0166033Y0064919D01*
X0165970Y0064964D01*
X0165909Y0065012D01*
X0165851Y0065063D01*
X0165796Y0065117D01*
X0165743Y0065174D01*
X0165694Y0065233D01*
X0165647Y0065295D01*
X0165604Y0065359D01*
X0165565Y0065425D01*
X0165528Y0065493D01*
X0165496Y0065563D01*
X0165466Y0065635D01*
X0165441Y0065708D01*
X0165419Y0065782D01*
X0165402Y0065857D01*
X0165388Y0065933D01*
X0165378Y0066010D01*
X0165372Y0066087D01*
X0165370Y0066164D01*
X0219406Y0078172D02*
X0236335Y0078172D01*
X0236335Y0097857D02*
X0219406Y0097857D01*
D15*
X0245049Y0077150D03*
D16*
X0094867Y0059138D03*
D17*
X0082237Y0047020D03*
X0082637Y0072920D03*
X0153703Y0039209D03*
D18*
X0149723Y0039709D02*
X0143817Y0039709D01*
X0143817Y0044236D02*
X0143817Y0046992D01*
X0143817Y0051520D02*
X0149723Y0051520D01*
X0124899Y0081550D02*
X0091041Y0081550D01*
X0096470Y0085014D02*
X0103970Y0085014D01*
X0103970Y0087014D01*
X0103970Y0093014D02*
X0103970Y0095014D01*
X0096970Y0095014D01*
X0096470Y0095014D01*
X0096470Y0093014D01*
X0096470Y0087014D02*
X0096470Y0085014D01*
X0092523Y0072420D02*
X0086617Y0072420D01*
X0092523Y0067892D02*
X0092523Y0065136D01*
X0092523Y0060609D02*
X0086617Y0060609D01*
X0086217Y0046520D02*
X0092123Y0046520D01*
X0092123Y0041992D02*
X0092123Y0039236D01*
X0092123Y0034709D02*
X0086217Y0034709D01*
X0065781Y0072603D02*
X0042159Y0072603D01*
X0042159Y0096225D01*
X0065781Y0096225D01*
X0065781Y0072603D01*
X0047561Y0084414D02*
X0047569Y0084728D01*
X0047592Y0085042D01*
X0047630Y0085354D01*
X0047684Y0085664D01*
X0047753Y0085971D01*
X0047837Y0086274D01*
X0047936Y0086573D01*
X0048049Y0086867D01*
X0048176Y0087154D01*
X0048318Y0087435D01*
X0048473Y0087709D01*
X0048641Y0087975D01*
X0048822Y0088232D01*
X0049016Y0088480D01*
X0049221Y0088718D01*
X0049438Y0088946D01*
X0049666Y0089163D01*
X0049904Y0089368D01*
X0050152Y0089562D01*
X0050409Y0089743D01*
X0050675Y0089911D01*
X0050949Y0090066D01*
X0051230Y0090208D01*
X0051517Y0090335D01*
X0051811Y0090448D01*
X0052110Y0090547D01*
X0052413Y0090631D01*
X0052720Y0090700D01*
X0053030Y0090754D01*
X0053342Y0090792D01*
X0053656Y0090815D01*
X0053970Y0090823D01*
X0054284Y0090815D01*
X0054598Y0090792D01*
X0054910Y0090754D01*
X0055220Y0090700D01*
X0055527Y0090631D01*
X0055830Y0090547D01*
X0056129Y0090448D01*
X0056423Y0090335D01*
X0056710Y0090208D01*
X0056991Y0090066D01*
X0057265Y0089911D01*
X0057531Y0089743D01*
X0057788Y0089562D01*
X0058036Y0089368D01*
X0058274Y0089163D01*
X0058502Y0088946D01*
X0058719Y0088718D01*
X0058924Y0088480D01*
X0059118Y0088232D01*
X0059299Y0087975D01*
X0059467Y0087709D01*
X0059622Y0087435D01*
X0059764Y0087154D01*
X0059891Y0086867D01*
X0060004Y0086573D01*
X0060103Y0086274D01*
X0060187Y0085971D01*
X0060256Y0085664D01*
X0060310Y0085354D01*
X0060348Y0085042D01*
X0060371Y0084728D01*
X0060379Y0084414D01*
X0060371Y0084100D01*
X0060348Y0083786D01*
X0060310Y0083474D01*
X0060256Y0083164D01*
X0060187Y0082857D01*
X0060103Y0082554D01*
X0060004Y0082255D01*
X0059891Y0081961D01*
X0059764Y0081674D01*
X0059622Y0081393D01*
X0059467Y0081119D01*
X0059299Y0080853D01*
X0059118Y0080596D01*
X0058924Y0080348D01*
X0058719Y0080110D01*
X0058502Y0079882D01*
X0058274Y0079665D01*
X0058036Y0079460D01*
X0057788Y0079266D01*
X0057531Y0079085D01*
X0057265Y0078917D01*
X0056991Y0078762D01*
X0056710Y0078620D01*
X0056423Y0078493D01*
X0056129Y0078380D01*
X0055830Y0078281D01*
X0055527Y0078197D01*
X0055220Y0078128D01*
X0054910Y0078074D01*
X0054598Y0078036D01*
X0054284Y0078013D01*
X0053970Y0078005D01*
X0053656Y0078013D01*
X0053342Y0078036D01*
X0053030Y0078074D01*
X0052720Y0078128D01*
X0052413Y0078197D01*
X0052110Y0078281D01*
X0051811Y0078380D01*
X0051517Y0078493D01*
X0051230Y0078620D01*
X0050949Y0078762D01*
X0050675Y0078917D01*
X0050409Y0079085D01*
X0050152Y0079266D01*
X0049904Y0079460D01*
X0049666Y0079665D01*
X0049438Y0079882D01*
X0049221Y0080110D01*
X0049016Y0080348D01*
X0048822Y0080596D01*
X0048641Y0080853D01*
X0048473Y0081119D01*
X0048318Y0081393D01*
X0048176Y0081674D01*
X0048049Y0081961D01*
X0047936Y0082255D01*
X0047837Y0082554D01*
X0047753Y0082857D01*
X0047684Y0083164D01*
X0047630Y0083474D01*
X0047592Y0083786D01*
X0047569Y0084100D01*
X0047561Y0084414D01*
X0042059Y0106003D02*
X0042059Y0129625D01*
X0065681Y0129625D01*
X0065681Y0106003D01*
X0042059Y0106003D01*
X0047461Y0117814D02*
X0047469Y0118128D01*
X0047492Y0118442D01*
X0047530Y0118754D01*
X0047584Y0119064D01*
X0047653Y0119371D01*
X0047737Y0119674D01*
X0047836Y0119973D01*
X0047949Y0120267D01*
X0048076Y0120554D01*
X0048218Y0120835D01*
X0048373Y0121109D01*
X0048541Y0121375D01*
X0048722Y0121632D01*
X0048916Y0121880D01*
X0049121Y0122118D01*
X0049338Y0122346D01*
X0049566Y0122563D01*
X0049804Y0122768D01*
X0050052Y0122962D01*
X0050309Y0123143D01*
X0050575Y0123311D01*
X0050849Y0123466D01*
X0051130Y0123608D01*
X0051417Y0123735D01*
X0051711Y0123848D01*
X0052010Y0123947D01*
X0052313Y0124031D01*
X0052620Y0124100D01*
X0052930Y0124154D01*
X0053242Y0124192D01*
X0053556Y0124215D01*
X0053870Y0124223D01*
X0054184Y0124215D01*
X0054498Y0124192D01*
X0054810Y0124154D01*
X0055120Y0124100D01*
X0055427Y0124031D01*
X0055730Y0123947D01*
X0056029Y0123848D01*
X0056323Y0123735D01*
X0056610Y0123608D01*
X0056891Y0123466D01*
X0057165Y0123311D01*
X0057431Y0123143D01*
X0057688Y0122962D01*
X0057936Y0122768D01*
X0058174Y0122563D01*
X0058402Y0122346D01*
X0058619Y0122118D01*
X0058824Y0121880D01*
X0059018Y0121632D01*
X0059199Y0121375D01*
X0059367Y0121109D01*
X0059522Y0120835D01*
X0059664Y0120554D01*
X0059791Y0120267D01*
X0059904Y0119973D01*
X0060003Y0119674D01*
X0060087Y0119371D01*
X0060156Y0119064D01*
X0060210Y0118754D01*
X0060248Y0118442D01*
X0060271Y0118128D01*
X0060279Y0117814D01*
X0060271Y0117500D01*
X0060248Y0117186D01*
X0060210Y0116874D01*
X0060156Y0116564D01*
X0060087Y0116257D01*
X0060003Y0115954D01*
X0059904Y0115655D01*
X0059791Y0115361D01*
X0059664Y0115074D01*
X0059522Y0114793D01*
X0059367Y0114519D01*
X0059199Y0114253D01*
X0059018Y0113996D01*
X0058824Y0113748D01*
X0058619Y0113510D01*
X0058402Y0113282D01*
X0058174Y0113065D01*
X0057936Y0112860D01*
X0057688Y0112666D01*
X0057431Y0112485D01*
X0057165Y0112317D01*
X0056891Y0112162D01*
X0056610Y0112020D01*
X0056323Y0111893D01*
X0056029Y0111780D01*
X0055730Y0111681D01*
X0055427Y0111597D01*
X0055120Y0111528D01*
X0054810Y0111474D01*
X0054498Y0111436D01*
X0054184Y0111413D01*
X0053870Y0111405D01*
X0053556Y0111413D01*
X0053242Y0111436D01*
X0052930Y0111474D01*
X0052620Y0111528D01*
X0052313Y0111597D01*
X0052010Y0111681D01*
X0051711Y0111780D01*
X0051417Y0111893D01*
X0051130Y0112020D01*
X0050849Y0112162D01*
X0050575Y0112317D01*
X0050309Y0112485D01*
X0050052Y0112666D01*
X0049804Y0112860D01*
X0049566Y0113065D01*
X0049338Y0113282D01*
X0049121Y0113510D01*
X0048916Y0113748D01*
X0048722Y0113996D01*
X0048541Y0114253D01*
X0048373Y0114519D01*
X0048218Y0114793D01*
X0048076Y0115074D01*
X0047949Y0115361D01*
X0047836Y0115655D01*
X0047737Y0115954D01*
X0047653Y0116257D01*
X0047584Y0116564D01*
X0047530Y0116874D01*
X0047492Y0117186D01*
X0047469Y0117500D01*
X0047461Y0117814D01*
X0091041Y0098479D02*
X0124899Y0098479D01*
X0114913Y0123139D02*
X0095228Y0123139D01*
X0095228Y0132194D01*
X0114913Y0132194D01*
X0114913Y0123139D01*
X0176670Y0182914D02*
X0176670Y0192914D01*
X0236670Y0192914D01*
X0236670Y0182914D01*
X0176670Y0182914D01*
X0213670Y0056214D02*
X0213670Y0018714D01*
X0248670Y0018714D01*
X0248670Y0056214D01*
X0213670Y0056214D01*
X0236170Y0032414D02*
X0236170Y0022414D01*
X0246170Y0022414D01*
X0246170Y0032414D01*
X0236170Y0032414D01*
M02*
