G75*
G70*
%OFA0B0*%
%FSLAX25Y25*%
%IPPOS*%
%LPD*%
%AMOC8*
5,1,8,0,0,1.08239X$1,22.5*
%
%ADD10R,0.05918X0.06706*%
%ADD11R,0.06706X0.05918*%
%ADD12R,0.03162X0.09461*%
%ADD13C,0.08200*%
%ADD14R,0.03162X0.06706*%
%ADD15R,0.06706X0.03162*%
%ADD16R,0.03800X0.07300*%
%ADD17R,0.09461X0.03162*%
%ADD18R,0.07493X0.03359*%
%ADD19R,0.04737X0.03556*%
%ADD20C,0.06700*%
%ADD21C,0.06200*%
%ADD22R,0.09068X0.06312*%
%ADD23C,0.10100*%
%ADD24R,0.03950X0.03950*%
D10*
X0068830Y0050014D03*
X0076310Y0050014D03*
X0068910Y0058214D03*
X0061430Y0058214D03*
X0068930Y0066514D03*
X0076410Y0066514D03*
X0102230Y0066614D03*
X0109710Y0066614D03*
X0109710Y0074814D03*
X0102230Y0074814D03*
X0132630Y0074814D03*
X0140110Y0074814D03*
X0140110Y0066414D03*
X0132630Y0066414D03*
X0126110Y0033814D03*
X0118630Y0033814D03*
X0198030Y0062014D03*
X0205510Y0062014D03*
X0206410Y0072814D03*
X0198930Y0072814D03*
X0223630Y0061714D03*
X0231110Y0061714D03*
X0231860Y0103514D03*
X0224380Y0103514D03*
X0136110Y0151614D03*
X0128630Y0151614D03*
X0119760Y0151614D03*
X0112280Y0151614D03*
X0118730Y0142714D03*
X0126210Y0142714D03*
X0105010Y0143014D03*
X0097530Y0143014D03*
X0127930Y0168314D03*
X0135410Y0168314D03*
X0123510Y0198814D03*
X0116030Y0198814D03*
X0054310Y0135514D03*
X0046830Y0135514D03*
D11*
X0055670Y0150074D03*
X0055670Y0157554D03*
X0073920Y0148104D03*
X0073920Y0140624D03*
X0089570Y0151624D03*
X0089570Y0159104D03*
X0064370Y0188674D03*
X0055770Y0188674D03*
X0055770Y0196154D03*
X0064370Y0196154D03*
X0078970Y0194674D03*
X0087370Y0194674D03*
X0087370Y0202154D03*
X0078970Y0202154D03*
X0095970Y0202154D03*
X0095970Y0194674D03*
X0106770Y0198874D03*
X0106770Y0206354D03*
X0128020Y0189104D03*
X0128020Y0181624D03*
X0241920Y0111854D03*
X0241920Y0104374D03*
X0203970Y0092954D03*
X0195520Y0092904D03*
X0195520Y0085424D03*
X0203970Y0085474D03*
X0158970Y0070354D03*
X0150570Y0070354D03*
X0150570Y0062874D03*
X0158970Y0062874D03*
X0188870Y0039954D03*
X0188870Y0032474D03*
X0178270Y0031574D03*
X0178270Y0039054D03*
X0158670Y0037954D03*
X0158670Y0030474D03*
X0135570Y0031274D03*
X0135570Y0038754D03*
D12*
X0117370Y0168728D03*
X0112370Y0168728D03*
X0107370Y0168728D03*
X0102370Y0168728D03*
X0102370Y0189200D03*
X0107370Y0189200D03*
X0112370Y0189200D03*
X0117370Y0189200D03*
D13*
X0046770Y0021814D03*
X0056770Y0021814D03*
X0066770Y0021814D03*
X0076770Y0021814D03*
X0086770Y0021814D03*
X0096770Y0021814D03*
X0106770Y0021814D03*
X0116770Y0021814D03*
X0131770Y0021814D03*
X0141770Y0021814D03*
X0151770Y0021814D03*
X0161770Y0021814D03*
X0171770Y0021814D03*
X0181770Y0021814D03*
X0191770Y0021814D03*
X0201770Y0021814D03*
X0166770Y0211814D03*
X0156770Y0211814D03*
X0146770Y0211814D03*
X0136770Y0211814D03*
X0126770Y0211814D03*
X0116770Y0211814D03*
X0096770Y0211814D03*
X0086770Y0211814D03*
X0076770Y0211814D03*
X0066770Y0211814D03*
X0056770Y0211814D03*
X0046770Y0211814D03*
D14*
X0070996Y0180432D03*
X0074146Y0180432D03*
X0077295Y0180432D03*
X0080445Y0180432D03*
X0083594Y0180432D03*
X0086744Y0180432D03*
X0086744Y0170196D03*
X0083594Y0170196D03*
X0080445Y0170196D03*
X0077295Y0170196D03*
X0074146Y0170196D03*
X0070996Y0170196D03*
D15*
X0069815Y0175314D03*
X0087925Y0175314D03*
D16*
X0166370Y0081664D03*
X0171370Y0081664D03*
X0176370Y0081664D03*
X0181370Y0081664D03*
X0181370Y0058664D03*
X0176370Y0058664D03*
X0171370Y0058664D03*
X0166370Y0058664D03*
D17*
X0217634Y0080514D03*
X0217634Y0085514D03*
X0217634Y0090514D03*
X0217634Y0095514D03*
X0238106Y0095514D03*
X0238106Y0090514D03*
X0238106Y0085514D03*
X0238106Y0080514D03*
D18*
X0130890Y0058764D03*
X0130890Y0053764D03*
X0130890Y0048764D03*
X0130890Y0043764D03*
X0102150Y0043764D03*
X0102150Y0048764D03*
X0102150Y0053764D03*
X0102150Y0058764D03*
D19*
X0094294Y0062774D03*
X0084846Y0062774D03*
X0084846Y0066514D03*
X0084846Y0070254D03*
X0094294Y0070254D03*
X0093894Y0044354D03*
X0084446Y0044354D03*
X0084446Y0040614D03*
X0084446Y0036874D03*
X0093894Y0036874D03*
X0142046Y0041874D03*
X0151494Y0041874D03*
X0151494Y0045614D03*
X0151494Y0049354D03*
X0142046Y0049354D03*
D20*
X0115870Y0090014D03*
X0107970Y0090014D03*
X0100070Y0090014D03*
X0221170Y0027414D03*
X0231170Y0027414D03*
X0241170Y0027414D03*
X0226670Y0187914D03*
X0186670Y0187914D03*
D21*
X0110070Y0127666D03*
X0100070Y0127666D03*
D22*
X0071783Y0126672D03*
X0071783Y0108956D03*
X0071883Y0093272D03*
X0071883Y0075556D03*
X0036057Y0075556D03*
X0036057Y0093272D03*
X0035957Y0108956D03*
X0035957Y0126672D03*
D23*
X0091770Y0090014D03*
X0124170Y0090014D03*
D24*
X0060818Y0142814D03*
X0054322Y0142814D03*
X0055570Y0166566D03*
X0055570Y0173062D03*
M02*
